<?xml version="1.0" encoding="utf-8"?>
<!-- Generator: Adobe Illustrator 27.5.0, SVG Export Plug-In . SVG Version: 6.00 Build 0)  -->
<svg version="1.1" xmlns="http://www.w3.org/2000/svg" xmlns:xlink="http://www.w3.org/1999/xlink" x="0px" y="0px"
	 viewBox="0 0 500 500" style="enable-background:new 0 0 500 500;" xml:space="preserve">
<g id="BACKGROUND">
	<rect style="fill-rule:evenodd;clip-rule:evenodd;fill:#FFFFFF;" width="500" height="500"/>
</g>
<g id="OBJECTS">
	<g>
		<rect x="161.912" y="36.52" style="fill:none;" width="176.176" height="26.208"/>
		<text transform="matrix(1 0 0 1 175.8154 54.7134)" style="fill:#4E4E4E; font-family:'Asap-Medium'; font-size:25.6256px;">chat bubble</text>
		<rect x="161.912" y="66.805" style="fill:none;" width="176.176" height="26.208"/>
		<text transform="matrix(1 0 0 1 199.98 80.0376)" style="fill:#4E4E4E; font-family:'Asap-Regular'; font-size:18.6368px;">collection</text>
		
			<line style="fill:none;stroke:#4E4E4E;stroke-width:1.04;stroke-miterlimit:10;" x1="163.223" y1="61.346" x2="336.778" y2="61.346"/>
	</g>
	<g>
		<g>
			<path style="fill:#BFDCC3;" d="M140.655,180.248c0,7.952-6.447,14.4-14.4,14.4h-81c-7.953,0-14.4-6.447-14.4-14.4v-10.707
				c0-7.952,6.447-14.399,14.4-14.399h81c7.953,0,14.4,6.447,14.4,14.399V180.248z"/>
			<g>
				<polyline style="fill:#BFDCC3;" points="137.915,167.935 153.915,174.895 137.915,181.855 				"/>
			</g>
		</g>
		<g>
			<path style="fill:#89D0D4;" d="M146.115,326.694c0,9.278-7.521,16.8-16.8,16.8h-81c-9.278,0-16.8-7.521-16.8-16.8l0,0
				c0-9.278,7.521-16.8,16.8-16.8h81C138.593,309.895,146.115,317.416,146.115,326.694L146.115,326.694z"/>
			<path style="fill:#89D0D4;" d="M146.115,367.975c0,9.278-7.521,16.8-16.8,16.8h-81c-9.278,0-16.8-7.522-16.8-16.8l0,0
				c0-9.278,7.521-16.8,16.8-16.8h81C138.593,351.175,146.115,358.696,146.115,367.975L146.115,367.975z"/>
			<g>
				<path style="fill:#89D0D4;" d="M112.14,339.055c0,5.119,0,10.239,0,15.359c0,4.457,6.912,4.457,6.912,0c0-5.12,0-10.24,0-15.359
					C119.052,334.597,112.14,334.597,112.14,339.055L112.14,339.055z"/>
			</g>
			<g>
				<path style="fill:#89D0D4;" d="M126.076,384.774c7.36,0,20.48,0,27.84,0c0-0.439-14.4-10.839-14.4-10.839"/>
			</g>
		</g>
		<g>
			<rect x="364.132" y="381.028" style="fill:#89D0D4;" width="105.601" height="56.399"/>
			<g>
				<path style="fill:#89D0D4;" d="M366.254,437.428c-5.44,0-16.881,0-16.881,0l16.161-16.119"/>
			</g>
		</g>
		<g>
			<path style="fill:#CACACA;" d="M469.732,326.548c0,15.906-12.895,28.8-28.8,28.8h-51c-15.906,0-28.801-12.894-28.801-28.8v-16.69
				c0-15.905,12.895-28.8,28.801-28.8h51c15.905,0,28.8,12.895,28.8,28.8V326.548z"/>
			<g>
				<path style="fill:#CACACA;" d="M365.214,360.747c7.428,0,7.428-11.52,0-11.52C357.784,349.228,357.784,360.747,365.214,360.747
					L365.214,360.747z"/>
			</g>
			<g>
				<path style="fill:#CACACA;" d="M356.733,368.427c5.572,0,5.572-8.64,0-8.64C351.162,359.787,351.162,368.427,356.733,368.427
					L356.733,368.427z"/>
			</g>
		</g>
		<g>
			<rect x="31.515" y="399.414" style="fill:#BFDCC3;" width="114.6" height="41.4"/>
			<g>
				<path style="fill:#BFDCC3;" d="M146.115,430.412c-0.039,6.082,0.872,7.563,3.321,10.24c1.759,1.922,6.24,3.68,9.6,5.12
					c-10.72,1.92-27.36,2.399-31.68-9.12"/>
			</g>
		</g>
		<g>
			<path style="fill-rule:evenodd;clip-rule:evenodd;fill:#CACACA;" d="M54.495,216.777c4.067-8.448,12.004-10.035,19.074-3.766
				c2.329-3.02,5.52-3.825,9.221-3.816c3.681,0.01,6.812,0.877,9.199,4.005c2.634-2.933,5.832-4.127,9.577-3.334
				c3.797,0.805,6.084,3.344,7.258,7.077c4.37-1.832,8.131-1.023,11.593,2.108c3.439,3.108,4.596,6.744,3.252,11.227
				c0.334,0.09,0.58,0.159,0.828,0.223c3.683,0.951,6.137,3.19,7.159,6.892c0.706,2.555,1.338,5.121,0.665,7.803
				c-0.503,2.002-1.66,3.59-3.233,5.079c2.88,2.314,4.255,5.274,3.874,8.892c-0.384,3.649-2.449,6.181-5.756,7.82
				c2.544,3.99,2.373,7.806-0.098,11.714c-2.477,3.92-5.847,5.729-10.534,5.082c-0.143,0.944-0.225,1.81-0.411,2.651
				c-0.462,2.095-1.515,3.867-3.225,5.162c-2.302,1.743-4.952,2.825-7.783,3.214c-3.013,0.413-5.663-0.647-7.983-2.903
				c-1.892,2.742-4.438,4.386-7.74,4.537c-3.271,0.15-5.943-1.214-8.029-3.69c-6.637,5.583-13.095,5.164-18.16-1.164
				c-0.208,0.111-0.448,0.205-0.648,0.354c-3.15,2.337-6.552,2.73-10.068,1.055c-1.816-0.864-3.619-1.888-5.163-3.158
				c-1.984-1.635-2.855-3.962-2.8-6.551c0.021-1.012-0.1-1.376-1.338-1.423c-7.66-0.289-11.768-7.959-7.9-14.585
				c0.13-0.224,0.232-0.464,0.341-0.685c-7.26-5.459-7.806-12.23-1.581-18.782c-0.67-0.931-1.396-1.822-1.992-2.794
				c-0.907-1.48-1.254-3.143-1.119-4.856c0.229-2.903,0.997-5.677,2.64-8.105c1.541-2.275,3.782-3.525,6.511-3.889
				c0.221-0.03,0.438-0.086,0.777-0.153c-0.753-3.945-0.078-7.473,3.149-10.086C47.252,215.339,50.818,215.172,54.495,216.777z"/>
			<g>
				<path style="fill:#CACACA;" d="M131.835,293.215c7.429,0,7.429-11.521,0-11.521
					C124.406,281.694,124.406,293.215,131.835,293.215L131.835,293.215z"/>
			</g>
		</g>
		<g>
			<path style="fill:#CACACA;" d="M319.698,124.149c0,11.598-9.402,21-21,21h-96.072c-11.598,0-21-9.402-21-21l0,0
				c0-11.598,9.402-21,21-21h96.072C310.296,103.149,319.698,112.552,319.698,124.149L319.698,124.149z"/>
			<g>
				<path style="fill:#CACACA;" d="M296.862,103.149c10.2,0,31.2,0,31.2,0c-6,4.2-14.04,9.601-12.841,18.601"/>
			</g>
		</g>
		<g>
			<g>
				<path style="fill:#BFDCC3;" d="M355.372,241.776c0,7.953,6.447,14.4,14.4,14.4h58.199c7.953,0,14.4-6.447,14.4-14.4v-20.676
					c0-7.952-6.447-14.399-14.4-14.399h-58.199c-7.953,0-14.4,6.447-14.4,14.399V241.776z"/>
				<g>
					<path style="fill:#BFDCC3;" d="M357.695,242.987c-1.12,4.319-5.601,11.041-10.24,11.681c5.757,3.3,16.001,0.639,20.32-3.841"/>
				</g>
			</g>
			<path style="fill:#D8E9DB;" d="M383.212,197.616c0,7.953,6.447,14.4,14.4,14.4h58.2c7.952,0,14.399-6.447,14.399-14.4V176.94
				c0-7.952-6.447-14.399-14.399-14.399h-58.2c-7.953,0-14.4,6.447-14.4,14.399V197.616z"/>
		</g>
	</g>
	<g>
		<g>
			<g>
				<path style="fill:#666666;" d="M178.13,231.33c0,1.689-1.371,3.055-3.063,3.055l0,0c-1.695,0-3.067-1.366-3.067-3.055v-17.847
					c0-1.686,1.372-3.051,3.067-3.051l0,0c1.691,0,3.063,1.365,3.063,3.051V231.33z"/>
				<path style="fill:#666666;" d="M178.13,259.509c0,1.689-1.371,3.055-3.063,3.055l0,0c-1.695,0-3.067-1.366-3.067-3.055v-17.846
					c0-1.687,1.372-3.051,3.067-3.051l0,0c1.691,0,3.063,1.364,3.063,3.051V259.509z"/>
				<path style="fill:#666666;" d="M178.13,287.688c0,1.688-1.371,3.055-3.063,3.055l0,0c-1.695,0-3.067-1.367-3.067-3.055v-17.846
					c0-1.685,1.372-3.051,3.067-3.051l0,0c1.691,0,3.063,1.365,3.063,3.051V287.688z"/>
				<path style="fill:#666666;" d="M328,247.064c0,1.458-1.188,2.641-2.65,2.641l0,0c-1.465,0-2.651-1.183-2.651-2.641V226.81
					c0-1.459,1.187-2.642,2.651-2.642l0,0c1.463,0,2.65,1.183,2.65,2.642V247.064z"/>
				<path style="fill:#666666;" d="M305.605,167.631c0,1.624-1.319,2.938-2.948,2.938H284.39c-1.627,0-2.946-1.314-2.946-2.938l0,0
					c0-1.62,1.319-2.933,2.946-2.933h18.268C304.286,164.698,305.605,166.011,305.605,167.631L305.605,167.631z"/>
			</g>
			<g>
				<path style="fill:#3E3E3D;" d="M325.055,431.238c0,9.725-7.918,17.612-17.681,17.612H193.041c-9.764,0-17.68-7.888-17.68-17.612
					v-245.81c0-9.727,7.916-17.61,17.68-17.61h114.333c9.763,0,17.681,7.883,17.681,17.61V431.238z"/>
				<path style="opacity:0.7;fill:#4E4E4E;" d="M325.055,432.434c0,9.064-8.739,16.417-15.816,16.417h-79.876
					c-7.078,0-12.815-7.353-12.815-16.417V203.311c0-9.067,5.737-16.416,12.815-16.416h82.876c7.077,0,12.816,7.349,12.816,16.416
					V432.434z"/>
			</g>
			<g>
				<g>
					<path style="fill:#666666;" d="M301.376,186.894c0.006,2.866-2.324,5.198-5.191,5.202c-2.873,0.002-5.204-2.323-5.208-5.192
						c-0.004-2.873,2.327-5.201,5.198-5.208C299.046,181.695,301.376,184.018,301.376,186.894z"/>
					<path style="fill:#7F7F7F;" d="M298.777,186.894c0,1.433-1.163,2.6-2.597,2.6c-1.436,0.004-2.605-1.162-2.605-2.593
						c-0.002-1.439,1.166-2.604,2.6-2.606C297.612,184.295,298.777,185.456,298.777,186.894z"/>
				</g>
				<path style="fill:none;stroke:#666666;stroke-width:1.7334;stroke-miterlimit:10;" d="M258.108,431.711
					c0.007,3.732-3.477,6.758-7.782,6.76l0,0c-4.308,0.004-7.807-3.016-7.814-6.749l-0.003-2.083c-0.001-3.73,3.5-6.766,7.801-6.768
					l0,0c4.307-0.003,7.797,3.023,7.799,6.762V431.711z"/>
				<path style="fill:#666666;" d="M280.77,186.894c0,2.053-1.668,3.713-3.726,3.713h-53.676c-2.057,0-3.723-1.66-3.723-3.713l0,0
					c0-2.05,1.666-3.71,3.723-3.71h53.676C279.102,183.184,280.77,184.844,280.77,186.894L280.77,186.894z"/>
				<g>
					<path style="fill:#232323;" d="M250.208,178.046c3.467,0,3.467-5.199,0-5.199C246.742,172.847,246.742,178.046,250.208,178.046
						L250.208,178.046z"/>
				</g>
			</g>
		</g>
		<g>
			<g>
				<rect x="186.352" y="201.865" style="fill:#FFFFFF;" width="127.298" height="212.936"/>
				<g>
					<g>
						
							<line style="fill:none;stroke:#CACACA;stroke-width:1.04;stroke-miterlimit:10;" x1="188.12" y1="392.71" x2="311.88" y2="392.71"/>
						<g>
							<path style="fill:#E4E4E4;" d="M299.4,403.713c0,3.617-2.886,6.549-6.446,6.549h-85.908c-3.56,0-6.446-2.932-6.446-6.549l0,0
								c0-3.616,2.887-6.549,6.446-6.549h85.908C296.515,397.164,299.4,400.097,299.4,403.713L299.4,403.713z"/>
							
								<line style="fill:none;stroke:#B0B0B0;stroke-width:0.78;stroke-linecap:round;stroke-linejoin:round;stroke-miterlimit:10;" x1="211.219" y1="399.033" x2="211.219" y2="408.394"/>
						</g>
						<g>
							<g>
								<path style="fill:#FFFFFF;stroke:#CACACA;stroke-width:0.8596;stroke-miterlimit:10;" d="M198.138,403.713
									c0,2.374-1.924,4.298-4.298,4.298c-2.373,0-4.298-1.924-4.298-4.298c0-2.374,1.925-4.298,4.298-4.298
									C196.214,399.415,198.138,401.339,198.138,403.713z"/>
								<g>
									<g>
										<g>
											<path style="fill:#CACACA;" d="M192.55,403.62c0.831,0,0.831-1.289,0-1.289S191.718,403.62,192.55,403.62L192.55,403.62z
												"/>
										</g>
									</g>
									<g>
										<g>
											<path style="fill:#CACACA;" d="M195.129,403.62c0.831,0,0.831-1.289,0-1.289S194.297,403.62,195.129,403.62
												L195.129,403.62z"/>
										</g>
									</g>
								</g>
								<g>
									<g>
										<path style="fill:#CACACA;" d="M191.571,404.707c1.346,1.478,3.341,1.569,4.589-0.064
											c0.252-0.331-0.308-0.651-0.557-0.326c-1.006,1.317-2.543,1.069-3.577-0.064
											C191.746,403.943,191.291,404.4,191.571,404.707L191.571,404.707z"/>
									</g>
								</g>
							</g>
							<g>
								
									<path style="fill:#CACACA;stroke:#CACACA;stroke-width:0.1977;stroke-linecap:round;stroke-linejoin:round;stroke-miterlimit:10;" d="
									M307.807,404.025c0,0.91-0.736,1.648-1.646,1.648l0,0c-0.911,0-1.647-0.737-1.647-1.648v-3.854
									c0-0.91,0.736-1.647,1.647-1.647l0,0c0.91,0,1.646,0.737,1.646,1.647V404.025z"/>
								
									<path style="fill:none;stroke:#CACACA;stroke-width:0.7908;stroke-linecap:round;stroke-linejoin:round;stroke-miterlimit:10;" d="
									M308.928,404.199c0,1.364-1.239,2.471-2.767,2.471l0,0c-1.528,0-2.768-1.106-2.768-2.471"/>
								
									<line style="fill:none;stroke:#CACACA;stroke-width:0.7908;stroke-linecap:round;stroke-linejoin:round;stroke-miterlimit:10;" x1="306.16" y1="406.67" x2="306.16" y2="408.902"/>
							</g>
						</g>
					</g>
					<g>
						<g>
							<g>
								<path style="fill:#FFFFFF;" d="M307.86,248.637c0,3.26-2.643,5.903-5.904,5.903c-3.261,0-5.902-2.643-5.902-5.903
									c0-3.261,2.642-5.904,5.902-5.904C305.218,242.732,307.86,245.376,307.86,248.637z"/>
								<g>
									<defs>
										<path id="SVGID_1_" d="M307.86,248.637c0,3.26-2.643,5.903-5.904,5.903c-3.261,0-5.902-2.643-5.902-5.903
											c0-3.261,2.642-5.904,5.902-5.904C305.218,242.732,307.86,245.376,307.86,248.637z"/>
									</defs>
									<clipPath id="SVGID_00000098926585250388417150000012167893606003558310_">
										<use xlink:href="#SVGID_1_"  style="overflow:visible;"/>
									</clipPath>
									<g style="clip-path:url(#SVGID_00000098926585250388417150000012167893606003558310_);">
										<path style="fill:#B0B0B0;" d="M297.832,254.756l0.322-2.922c0-0.778,2.503-1.517,2.926-1.517h1.753
											c0.425,0,2.927,0.738,2.927,1.517l0.321,2.922"/>
										<path style="fill:#B0B0B0;" d="M303.05,250.947c0,0.34-0.557,0.615-1.094,0.615l0,0c-0.537,0-1.094-0.275-1.094-0.615
											l0.226-1.792c0-0.341,0.331-0.617,0.868-0.617l0,0c0.537,0,0.866,0.276,0.866,0.617L303.05,250.947z"/>
										<path style="fill:#B0B0B0;" d="M304.242,246.845c0,1.781-1.023,3.138-2.286,3.138c-1.262,0-2.284-1.356-2.284-3.138
											c0-1.781,1.022-2.753,2.284-2.753C303.219,244.092,304.242,245.064,304.242,246.845z"/>
										<path style="fill:#B0B0B0;" d="M300.259,247.582c0.045,0.251-0.138,0.486-0.407,0.526l0,0
											c-0.267,0.039-0.52-0.131-0.562-0.381l-0.034-0.201c-0.043-0.25,0.142-0.486,0.409-0.525l0,0
											c0.268-0.04,0.52,0.13,0.562,0.382L300.259,247.582z"/>
										<path style="fill:#B0B0B0;" d="M303.651,247.582c-0.043,0.251,0.14,0.486,0.409,0.526l0,0
											c0.27,0.039,0.521-0.131,0.563-0.381l0.034-0.201c0.042-0.25-0.142-0.486-0.408-0.525l0,0
											c-0.268-0.04-0.522,0.13-0.564,0.382L303.651,247.582z"/>
									</g>
								</g>
								<path style="fill:none;stroke:#CACACA;stroke-width:0.575;stroke-miterlimit:10;" d="M307.86,248.637
									c0,3.26-2.643,5.903-5.904,5.903c-3.261,0-5.902-2.643-5.902-5.903c0-3.261,2.642-5.904,5.902-5.904
									C305.218,242.732,307.86,245.376,307.86,248.637z"/>
							</g>
							<g>
								<path style="fill:#FFFFFF;" d="M307.86,353.552c0,3.26-2.643,5.903-5.904,5.903c-3.261,0-5.902-2.644-5.902-5.903
									c0-3.261,2.642-5.904,5.902-5.904C305.218,347.647,307.86,350.291,307.86,353.552z"/>
								<g>
									<defs>
										<path id="SVGID_00000063594552819292136830000011289654226526627516_" d="M307.86,353.552c0,3.26-2.643,5.903-5.904,5.903
											c-3.261,0-5.902-2.644-5.902-5.903c0-3.261,2.642-5.904,5.902-5.904C305.218,347.647,307.86,350.291,307.86,353.552z"/>
									</defs>
									<clipPath id="SVGID_00000027587566970014689210000003177436602003810465_">
										<use xlink:href="#SVGID_00000063594552819292136830000011289654226526627516_"  style="overflow:visible;"/>
									</clipPath>
									<g style="clip-path:url(#SVGID_00000027587566970014689210000003177436602003810465_);">
										<path style="fill:#B0B0B0;" d="M297.832,359.671l0.322-2.921c0-0.779,2.503-1.518,2.926-1.518h1.753
											c0.425,0,2.927,0.738,2.927,1.518l0.321,2.921"/>
										<path style="fill:#B0B0B0;" d="M303.05,355.862c0,0.34-0.557,0.615-1.094,0.615l0,0c-0.537,0-1.094-0.275-1.094-0.615
											l0.226-1.792c0-0.341,0.331-0.617,0.868-0.617l0,0c0.537,0,0.866,0.276,0.866,0.617L303.05,355.862z"/>
										<path style="fill:#B0B0B0;" d="M304.242,351.76c0,1.781-1.023,3.139-2.286,3.139c-1.262,0-2.284-1.357-2.284-3.139
											c0-1.781,1.022-2.753,2.284-2.753C303.219,349.007,304.242,349.978,304.242,351.76z"/>
										<path style="fill:#B0B0B0;" d="M300.259,352.497c0.045,0.251-0.138,0.486-0.407,0.526l0,0
											c-0.267,0.039-0.52-0.131-0.562-0.381l-0.034-0.201c-0.043-0.25,0.142-0.486,0.409-0.525l0,0
											c0.268-0.04,0.52,0.13,0.562,0.382L300.259,352.497z"/>
										<path style="fill:#B0B0B0;" d="M303.651,352.497c-0.043,0.251,0.14,0.486,0.409,0.526l0,0
											c0.27,0.039,0.521-0.131,0.563-0.381l0.034-0.201c0.042-0.25-0.142-0.486-0.408-0.525l0,0
											c-0.268-0.04-0.522,0.13-0.564,0.382L303.651,352.497z"/>
									</g>
								</g>
								<path style="fill:none;stroke:#CACACA;stroke-width:0.575;stroke-miterlimit:10;" d="M307.86,353.552
									c0,3.26-2.643,5.903-5.904,5.903c-3.261,0-5.902-2.644-5.902-5.903c0-3.261,2.642-5.904,5.902-5.904
									C305.218,347.647,307.86,350.291,307.86,353.552z"/>
							</g>
							<g>
								<path style="fill:#FFFFFF;" d="M203.954,291.006c0,3.261-2.644,5.903-5.904,5.903s-5.902-2.643-5.902-5.903
									c0-3.261,2.642-5.903,5.902-5.903S203.954,287.745,203.954,291.006z"/>
								<g>
									<defs>
										<path id="SVGID_00000010311585920602620790000009746448991073156541_" d="M203.954,291.006
											c0,3.261-2.644,5.903-5.904,5.903s-5.902-2.643-5.902-5.903c0-3.261,2.642-5.903,5.902-5.903
											S203.954,287.745,203.954,291.006z"/>
									</defs>
									<clipPath id="SVGID_00000165914931268266735980000013146789463262949771_">
										<use xlink:href="#SVGID_00000010311585920602620790000009746448991073156541_"  style="overflow:visible;"/>
									</clipPath>
									<g style="clip-path:url(#SVGID_00000165914931268266735980000013146789463262949771_);">
										<path style="fill:#9DD9DC;" d="M193.927,297.124l0.32-2.92c0-0.778,2.504-1.518,2.926-1.518h1.754
											c0.424,0,2.927,0.739,2.927,1.518l0.32,2.92"/>
										<path style="fill:#9DD9DC;" d="M199.144,293.315c0,0.341-0.556,0.616-1.094,0.616l0,0c-0.537,0-1.094-0.275-1.094-0.616
											l0.226-1.79c0-0.343,0.331-0.618,0.868-0.618l0,0c0.538,0,0.867,0.275,0.867,0.618L199.144,293.315z"/>
										<path style="fill:#9DD9DC;" d="M200.336,289.215c0,1.78-1.023,3.137-2.286,3.137s-2.284-1.357-2.284-3.137
											c0-1.783,1.021-2.754,2.284-2.754S200.336,287.432,200.336,289.215z"/>
										<path style="fill:#9DD9DC;" d="M196.353,289.952c0.044,0.251-0.139,0.485-0.407,0.525l0,0
											c-0.269,0.041-0.52-0.13-0.563-0.38l-0.033-0.202c-0.043-0.248,0.141-0.485,0.409-0.524l0,0
											c0.268-0.04,0.52,0.131,0.563,0.382L196.353,289.952z"/>
										<path style="fill:#9DD9DC;" d="M199.745,289.952c-0.042,0.251,0.14,0.485,0.409,0.525l0,0
											c0.269,0.041,0.52-0.13,0.563-0.38l0.033-0.202c0.044-0.248-0.141-0.485-0.408-0.524l0,0
											c-0.269-0.04-0.521,0.131-0.563,0.382L199.745,289.952z"/>
									</g>
								</g>
								<path style="fill:none;stroke:#CACACA;stroke-width:0.575;stroke-miterlimit:10;" d="M203.954,291.006
									c0,3.261-2.644,5.903-5.904,5.903s-5.902-2.643-5.902-5.903c0-3.261,2.642-5.903,5.902-5.903
									S203.954,287.745,203.954,291.006z"/>
							</g>
							<g>
								<path style="fill:#FFFFFF;" d="M203.954,379.78c0,3.261-2.644,5.903-5.904,5.903s-5.902-2.643-5.902-5.903
									c0-3.261,2.642-5.903,5.902-5.903S203.954,376.52,203.954,379.78z"/>
								<g>
									<defs>
										<path id="SVGID_00000072999685056655599770000001325348720129695893_" d="M203.954,379.78
											c0,3.261-2.644,5.903-5.904,5.903s-5.902-2.643-5.902-5.903c0-3.261,2.642-5.903,5.902-5.903
											S203.954,376.52,203.954,379.78z"/>
									</defs>
									<clipPath id="SVGID_00000080916038081523600360000007262736396282643116_">
										<use xlink:href="#SVGID_00000072999685056655599770000001325348720129695893_"  style="overflow:visible;"/>
									</clipPath>
									<g style="clip-path:url(#SVGID_00000080916038081523600360000007262736396282643116_);">
										<path style="fill:#9DD9DC;" d="M193.927,385.899l0.32-2.922c0-0.778,2.504-1.516,2.926-1.516h1.754
											c0.424,0,2.927,0.737,2.927,1.516l0.32,2.922"/>
										<path style="fill:#9DD9DC;" d="M199.144,382.091c0,0.34-0.556,0.616-1.094,0.616l0,0c-0.537,0-1.094-0.276-1.094-0.616
											l0.226-1.791c0-0.342,0.331-0.618,0.868-0.618l0,0c0.538,0,0.867,0.276,0.867,0.618L199.144,382.091z"/>
										<path style="fill:#9DD9DC;" d="M200.336,377.988c0,1.781-1.023,3.139-2.286,3.139s-2.284-1.358-2.284-3.139
											c0-1.781,1.021-2.752,2.284-2.752S200.336,376.207,200.336,377.988z"/>
										<path style="fill:#9DD9DC;" d="M196.353,378.726c0.044,0.251-0.139,0.486-0.407,0.526l0,0
											c-0.269,0.04-0.52-0.131-0.563-0.381l-0.033-0.201c-0.043-0.25,0.141-0.486,0.409-0.525l0,0
											c0.268-0.04,0.52,0.131,0.563,0.382L196.353,378.726z"/>
										<path style="fill:#9DD9DC;" d="M199.745,378.726c-0.042,0.251,0.14,0.486,0.409,0.526l0,0
											c0.269,0.04,0.52-0.131,0.563-0.381l0.033-0.201c0.044-0.25-0.141-0.486-0.408-0.525l0,0
											c-0.269-0.04-0.521,0.131-0.563,0.382L199.745,378.726z"/>
									</g>
								</g>
								<path style="fill:none;stroke:#CACACA;stroke-width:0.575;stroke-miterlimit:10;" d="M203.954,379.78
									c0,3.261-2.644,5.903-5.904,5.903s-5.902-2.643-5.902-5.903c0-3.261,2.642-5.903,5.902-5.903S203.954,376.52,203.954,379.78
									z"/>
							</g>
						</g>
						<g>
							<g>
								<path style="fill:#BFDCC3;" d="M287.326,248.635c0,5.487-4.48,9.935-10.008,9.935h-70.777
									c-5.526,0-10.007-4.447-10.007-9.935l0,0c0-5.485,4.48-9.933,10.007-9.933h70.777
									C282.847,238.702,287.326,243.149,287.326,248.635L287.326,248.635z"/>
								<g>
									<polyline style="fill:#BFDCC3;" points="284.889,244.601 293.969,248.635 284.889,252.671 									"/>
								</g>
							</g>
							<g>
								<path style="fill:#9DD9DC;" d="M287.326,324.674c0,2.786-2.269,5.044-5.067,5.044h-80.657c-2.798,0-5.067-2.258-5.067-5.044
									v-13.871c0-2.785,2.27-5.044,5.067-5.044h80.657c2.799,0,5.067,2.259,5.067,5.044V324.674z"/>
								<path style="fill:#9DD9DC;" d="M287.326,353.929c0,2.786,0.758,5.044-2.041,5.044h-83.684c-2.798,0-5.067-2.258-5.067-5.044
									v-13.871c0-2.785,2.27-5.044,5.067-5.044h80.657c2.799,0,5.067,2.259,5.067,5.044V353.929z"/>
								<g>
									<path style="fill:#9DD9DC;" d="M263.955,326.482c0,4.092,0,8.183,0,12.274c0,3.903,6.053,3.903,6.053,0
										c0-4.092,0-8.183,0-12.274C270.008,322.58,263.955,322.58,263.955,326.482L263.955,326.482z"/>
								</g>
								<path style="fill:#9DD9DC;" d="M284.3,349.685c0.504,4.271,5.716,6.726,9.246,7.23c-4.035,4.035-13.22,3.13-16.308-0.841"/>
							</g>
							<g>
								<g>
									<path style="fill:#CACACA;" d="M303.467,287.467c0,5.571-4.538,10.088-10.136,10.088H222.81
										c-5.599,0-10.136-4.517-10.136-10.088v-10.711c0-5.571,4.537-10.088,10.136-10.088h70.521
										c5.598,0,10.136,4.517,10.136,10.088V287.467z"/>
									<g>
										<path style="fill:#CACACA;" d="M212.675,282.43c0.083,6.327,0,9.584-5.549,12.106c3.342,1.702,9.143,1.702,10.929-3.195"
											/>
									</g>
								</g>
								<g>
									<g>
										<g>
											<path style="fill:#B0B0B0;" d="M290.995,291.759c0.337,0.841,0.674,1.681,1.01,2.522c0.104,0.26,0.411,0.38,0.633,0.167
												c1.457-1.401,2.914-2.802,4.371-4.203c0.353-0.339-0.184-0.873-0.535-0.535c-1.457,1.401-2.914,2.802-4.371,4.203
												c0.211,0.056,0.422,0.111,0.633,0.167c-0.337-0.841-0.674-1.681-1.01-2.522
												C291.546,291.11,290.814,291.306,290.995,291.759L290.995,291.759z"/>
										</g>
									</g>
									<g>
										<g>
											<path style="fill:#979797;" d="M293.015,291.759c0.336,0.841,0.672,1.681,1.007,2.522c0.105,0.26,0.411,0.38,0.633,0.167
												c1.457-1.401,2.914-2.802,4.371-4.203c0.353-0.339-0.184-0.873-0.535-0.535c-1.457,1.401-2.914,2.802-4.371,4.203
												c0.211,0.056,0.422,0.111,0.633,0.167c-0.336-0.841-0.672-1.681-1.007-2.522
												C293.566,291.11,292.834,291.306,293.015,291.759L293.015,291.759z"/>
										</g>
									</g>
								</g>
							</g>
							<g>
								<g>
									<path style="fill:#CACACA;" d="M303.467,381.071c0,1.672-1.363,3.027-3.045,3.027h-84.703
										c-1.681,0-3.044-1.355-3.044-3.027v-11.6c0-1.672,1.363-3.027,3.044-3.027h84.703c1.682,0,3.045,1.355,3.045,3.027V381.071
										z"/>
									<g>
										<path style="fill:#CACACA;" d="M212.675,375.746c0.378,4.458-3.195,7.061-6.39,8.237
											c1.346,1.219,9.584,1.514,11.266-0.335"/>
									</g>
								</g>
								<g>
									<g>
										<g>
											<path style="fill:#B0B0B0;" d="M290.995,379.523c0.337,0.841,0.674,1.682,1.01,2.522c0.104,0.26,0.411,0.38,0.633,0.167
												c1.457-1.401,2.914-2.803,4.371-4.204c0.353-0.339-0.184-0.873-0.535-0.535c-1.457,1.401-2.914,2.803-4.371,4.204
												c0.211,0.056,0.422,0.111,0.633,0.167c-0.337-0.841-0.674-1.682-1.01-2.522
												C291.546,378.875,290.814,379.07,290.995,379.523L290.995,379.523z"/>
										</g>
									</g>
									<g>
										<g>
											<path style="fill:#979797;" d="M293.015,379.523c0.336,0.841,0.672,1.682,1.007,2.522c0.105,0.26,0.411,0.38,0.633,0.167
												c1.457-1.401,2.914-2.803,4.371-4.204c0.353-0.339-0.184-0.873-0.535-0.535c-1.457,1.401-2.914,2.803-4.371,4.204
												c0.211,0.056,0.422,0.111,0.633,0.167c-0.336-0.841-0.672-1.682-1.007-2.522
												C293.566,378.875,292.834,379.07,293.015,379.523L293.015,379.523z"/>
										</g>
									</g>
								</g>
							</g>
						</g>
					</g>
					<g>
						<rect x="186.352" y="201.865" style="fill:#89D0D4;" width="127.298" height="25.308"/>
						<rect x="186.352" y="213.602" style="fill:#599396;" width="127.298" height="16.641"/>
						<g>
							<g>
								<g>
									<g>
										<path style="fill:#FFFFFF;" d="M195.056,219.279c3.12,0,6.24,0,9.36,0c0.885,0,0.885-1.373,0-1.373c-3.12,0-6.24,0-9.36,0
											C194.17,217.906,194.17,219.279,195.056,219.279L195.056,219.279z"/>
									</g>
								</g>
								<g>
									<g>
										<path style="fill:#FFFFFF;" d="M195.056,222.399c3.12,0,6.24,0,9.36,0c0.885,0,0.885-1.373,0-1.373c-3.12,0-6.24,0-9.36,0
											C194.17,221.026,194.17,222.399,195.056,222.399L195.056,222.399z"/>
									</g>
								</g>
								<g>
									<g>
										<path style="fill:#FFFFFF;" d="M195.056,225.52c3.12,0,6.24,0,9.36,0c0.885,0,0.885-1.373,0-1.373c-3.12,0-6.24,0-9.36,0
											C194.17,224.146,194.17,225.52,195.056,225.52L195.056,225.52z"/>
									</g>
								</g>
							</g>
							<rect x="218.365" y="217.759" style="fill:none;" width="63.269" height="8.483"/>
							<text transform="matrix(1 0 0 1 235.5054 224.4048)" style="fill:#FFFFFF; font-family:'Asap-Medium'; font-size:9.36px;">Samuel</text>
							<g>
								
									<path style="fill-rule:evenodd;clip-rule:evenodd;fill:#FFFFFF;stroke:#77C5CA;stroke-width:0.26;stroke-miterlimit:10;" d="
									M301.909,222.415c-0.899-1.923-0.17-2.072,0.601-2.675l-1.319-2.799l-0.115-0.245c-0.276,0.131-0.551,0.243-0.811,0.386
									c-0.396,0.219-0.685,0.542-0.856,0.969c-0.165,0.407-0.199,0.833-0.16,1.268c0.065,0.779,0.249,1.534,0.553,2.244
									c0.19,0.452,0.341,0.925,0.557,1.365c0.275,0.563,0.619,1.095,0.914,1.648c0.299,0.559,0.716,1.054,1.125,1.54
									c0.328,0.385,0.687,0.735,1.142,0.969c0.503,0.256,1.012,0.287,1.529,0.034c0.231-0.115,0.465-0.227,0.695-0.343
									c0.02-0.009,0.035-0.021,0.051-0.033l-0.114-0.237l-1.314-2.788C303.43,223.929,302.919,224.581,301.909,222.415z"/>
								<path style="fill:#FFFFFF;stroke:#77C5CA;stroke-width:0.26;stroke-miterlimit:10;" d="M303.68,218.842
									c0.102,0.216,0.061,0.448-0.091,0.52l-0.482,0.229c-0.153,0.069-0.356-0.044-0.46-0.261l-1.146-2.433
									c-0.101-0.211-0.06-0.443,0.093-0.518l0.481-0.226c0.153-0.072,0.358,0.044,0.459,0.256L303.68,218.842z"/>
								<path style="fill:#FFFFFF;stroke:#77C5CA;stroke-width:0.26;stroke-miterlimit:10;" d="M306.971,225.813
									c0.1,0.216,0.058,0.445-0.093,0.52l-0.482,0.227c-0.151,0.072-0.357-0.044-0.458-0.258l-1.147-2.433
									c-0.103-0.214-0.059-0.443,0.093-0.516l0.482-0.229c0.149-0.071,0.357,0.044,0.457,0.257L306.971,225.813z"/>
							</g>
						</g>
						<g>
							<rect x="235.378" y="206.344" style="fill:none;" width="29.244" height="7.422"/>
							<text transform="matrix(1 0 0 1 244.5522 210.7749)" style="fill:#FFFFFF; font-family:'Asap-Regular'; font-size:6.24px;">4:20</text>
							<g>
								<g>
									<rect x="291.403" y="206.546" style="fill:#FFFFFF;" width="7.978" height="4.248"/>
									<rect x="298.339" y="207.484" style="fill:#FFFFFF;" width="2.173" height="2.371"/>
									<rect x="292.072" y="207.14" style="fill:#A2DBDE;" width="6.64" height="3.06"/>
									<rect x="291.685" y="206.694" style="fill:#FFFFFF;" width="4.742" height="3.951"/>
								</g>
								<path style="fill:#FFFFFF;" d="M309.099,208.085l-2.579,3.075l-2.58-3.075c0-1.052,1.156-1.906,2.58-1.906
									C307.942,206.179,309.099,207.033,309.099,208.085z"/>
							</g>
							<g>
								<g>
									
										<rect x="193.126" y="206.585" style="fill-rule:evenodd;clip-rule:evenodd;fill:none;stroke:#FFFFFF;stroke-width:0.52;stroke-linecap:round;stroke-linejoin:round;stroke-miterlimit:10;" width="5.97" height="4.17"/>
									
										<line style="fill:none;stroke:#FFFFFF;stroke-width:0.52;stroke-linecap:round;stroke-linejoin:round;stroke-miterlimit:10;" x1="193.126" y1="206.585" x2="196.129" y2="209.388"/>
									
										<line style="fill:none;stroke:#FFFFFF;stroke-width:0.52;stroke-linecap:round;stroke-linejoin:round;stroke-miterlimit:10;" x1="199.096" y1="206.585" x2="196.129" y2="209.388"/>
									
										<line style="fill:none;stroke:#FFFFFF;stroke-width:0.52;stroke-linecap:round;stroke-linejoin:round;stroke-miterlimit:10;" x1="195.287" y1="208.601" x2="193.126" y2="210.755"/>
									
										<line style="fill:none;stroke:#FFFFFF;stroke-width:0.52;stroke-linecap:round;stroke-linejoin:round;stroke-miterlimit:10;" x1="196.988" y1="208.577" x2="199.096" y2="210.755"/>
								</g>
								<g>
									
										<rect x="202.486" y="206.585" style="fill-rule:evenodd;clip-rule:evenodd;fill:none;stroke:#FFFFFF;stroke-width:0.52;stroke-linecap:round;stroke-linejoin:round;stroke-miterlimit:10;" width="5.97" height="4.17"/>
									
										<line style="fill:none;stroke:#FFFFFF;stroke-width:0.52;stroke-linecap:round;stroke-linejoin:round;stroke-miterlimit:10;" x1="202.486" y1="206.585" x2="205.489" y2="209.388"/>
									
										<line style="fill:none;stroke:#FFFFFF;stroke-width:0.52;stroke-linecap:round;stroke-linejoin:round;stroke-miterlimit:10;" x1="208.456" y1="206.585" x2="205.489" y2="209.388"/>
									
										<line style="fill:none;stroke:#FFFFFF;stroke-width:0.52;stroke-linecap:round;stroke-linejoin:round;stroke-miterlimit:10;" x1="204.646" y1="208.601" x2="202.486" y2="210.755"/>
									
										<line style="fill:none;stroke:#FFFFFF;stroke-width:0.52;stroke-linecap:round;stroke-linejoin:round;stroke-miterlimit:10;" x1="206.348" y1="208.577" x2="208.456" y2="210.755"/>
								</g>
							</g>
						</g>
					</g>
				</g>
			</g>
			
				<rect x="186.352" y="201.865" style="fill:none;stroke:#666666;stroke-width:2.6;stroke-miterlimit:10;" width="127.298" height="212.936"/>
		</g>
	</g>
</g>
<g id="DESIGNED_BY_FREEPIK">
	<g>
		<g>
			<path style="fill:#BBBCBF;" d="M175.869,475.707c-0.141-0.17-0.34-0.25-0.61-0.25c-0.27,0-0.47,0.09-0.62,0.27
				c-0.14,0.189-0.209,0.459-0.209,0.82v2.6c-0.33-0.359-0.671-0.631-1.02-0.811c-0.351-0.17-0.771-0.26-1.28-0.26
				c-0.87,0-1.58,0.31-2.12,0.92c-0.53,0.621-0.8,1.471-0.8,2.57c0,0.52,0.07,1,0.2,1.449c0.14,0.451,0.33,0.842,0.6,1.17
				c0.261,0.33,0.57,0.58,0.931,0.762c0.35,0.18,0.74,0.27,1.16,0.27c0.319,0,0.619-0.051,0.879-0.141
				c0.271-0.08,0.521-0.209,0.75-0.379c0.231-0.17,0.461-0.391,0.701-0.66v0.17c0,0.32,0.079,0.57,0.23,0.75
				c0.159,0.17,0.36,0.26,0.6,0.26c0.24,0,0.44-0.09,0.601-0.25c0.149-0.17,0.23-0.42,0.23-0.76v-7.75
				C176.089,476.127,176.019,475.877,175.869,475.707z M174.1,482.877c-0.15,0.33-0.351,0.58-0.61,0.74
				c-0.25,0.16-0.54,0.24-0.841,0.24c-0.309,0-0.59-0.092-0.85-0.262c-0.26-0.17-0.46-0.42-0.609-0.75
				c-0.141-0.34-0.221-0.738-0.221-1.219c0-0.451,0.07-0.85,0.211-1.192c0.139-0.34,0.34-0.6,0.59-0.779
				c0.25-0.18,0.539-0.279,0.859-0.279c0.311,0,0.6,0.09,0.86,0.27c0.26,0.18,0.46,0.439,0.61,0.769
				c0.159,0.34,0.229,0.74,0.229,1.211C174.329,482.127,174.259,482.537,174.1,482.877z"/>
			<path style="fill:#BBBCBF;" d="M182.919,482.797c-0.17,0-0.3,0.039-0.39,0.119c-0.221,0.201-0.4,0.371-0.53,0.49
				c-0.14,0.121-0.29,0.23-0.45,0.34c-0.17,0.1-0.33,0.18-0.51,0.23c-0.17,0.051-0.359,0.07-0.57,0.07c-0.32,0-0.6-0.08-0.859-0.23
				c-0.26-0.15-0.471-0.381-0.631-0.689c-0.16-0.301-0.239-0.66-0.239-1.051h3.44c0.459,0,0.81-0.07,1.069-0.199
				c0.25-0.131,0.38-0.42,0.38-0.861c0-0.478-0.13-0.939-0.37-1.398c-0.239-0.461-0.61-0.84-1.11-1.131
				c-0.489-0.289-1.08-0.43-1.76-0.43c-0.529,0-1.01,0.08-1.439,0.25c-0.44,0.17-0.801,0.42-1.1,0.73
				c-0.291,0.32-0.521,0.699-0.67,1.148c-0.16,0.442-0.24,0.922-0.24,1.442c0,1.1,0.319,1.98,0.939,2.619
				c0.63,0.641,1.51,0.971,2.641,0.971c0.489,0,0.93-0.07,1.31-0.201c0.38-0.129,0.69-0.289,0.94-0.478
				c0.25-0.201,0.44-0.4,0.569-0.611c0.12-0.219,0.181-0.398,0.181-0.559c0-0.182-0.051-0.32-0.16-0.42
				C183.239,482.846,183.1,482.797,182.919,482.797z M179.249,479.727c0.28-0.301,0.64-0.449,1.08-0.449
				c0.46,0,0.83,0.148,1.11,0.449c0.279,0.301,0.439,0.75,0.49,1.35h-3.19C178.799,480.486,178.969,480.037,179.249,479.727z"/>
			<path style="fill:#BBBCBF;" d="M189.919,482.057c-0.18-0.25-0.44-0.471-0.79-0.65c-0.34-0.19-0.79-0.35-1.33-0.48
				c-0.46-0.109-0.82-0.209-1.08-0.279c-0.27-0.08-0.47-0.18-0.63-0.301c-0.149-0.109-0.23-0.27-0.23-0.449
				c0-0.199,0.1-0.369,0.309-0.51c0.22-0.131,0.48-0.201,0.8-0.201c0.311,0,0.551,0.051,0.73,0.16c0.18,0.102,0.34,0.24,0.47,0.41
				c0.16,0.201,0.31,0.361,0.431,0.461c0.129,0.1,0.279,0.16,0.459,0.16c0.25,0,0.45-0.07,0.58-0.201
				c0.141-0.129,0.2-0.289,0.2-0.49c0-0.189-0.06-0.379-0.191-0.568c-0.119-0.191-0.309-0.371-0.549-0.531
				c-0.24-0.16-0.541-0.279-0.91-0.379c-0.36-0.09-0.771-0.141-1.221-0.141c-0.58,0-1.08,0.09-1.49,0.279
				c-0.41,0.191-0.72,0.441-0.93,0.75c-0.21,0.311-0.31,0.65-0.31,1c0,0.391,0.11,0.73,0.34,1c0.23,0.271,0.53,0.49,0.91,0.65
				c0.38,0.16,0.87,0.32,1.48,0.471c0.53,0.129,0.92,0.27,1.15,0.41c0.24,0.139,0.35,0.369,0.35,0.67
				c0,0.209-0.109,0.379-0.33,0.539c-0.229,0.16-0.52,0.24-0.869,0.24c-0.431,0-0.78-0.08-1.03-0.23
				c-0.25-0.16-0.46-0.389-0.65-0.709c-0.08-0.16-0.18-0.291-0.28-0.381c-0.1-0.09-0.24-0.129-0.42-0.129
				c-0.209,0-0.39,0.07-0.52,0.199c-0.141,0.141-0.21,0.31-0.21,0.5c0,0.291,0.11,0.58,0.319,0.871c0.221,0.289,0.551,0.529,1,0.729
				c0.451,0.191,0.99,0.291,1.621,0.291c0.659,0,1.219-0.09,1.68-0.27c0.47-0.182,0.82-0.441,1.05-0.791
				c0.239-0.34,0.351-0.76,0.351-1.24C190.18,482.596,190.1,482.307,189.919,482.057z"/>
			<path style="fill:#BBBCBF;" d="M192.6,478.336c-0.17-0.18-0.381-0.27-0.641-0.27c-0.26,0-0.47,0.09-0.63,0.27
				c-0.16,0.17-0.24,0.43-0.24,0.781v5.029c0,0.34,0.08,0.6,0.24,0.789c0.16,0.182,0.37,0.281,0.63,0.281
				c0.26,0,0.471-0.09,0.641-0.27c0.17-0.182,0.25-0.451,0.25-0.801v-5.08C192.85,478.756,192.769,478.506,192.6,478.336z
				 M192.579,475.746c-0.17-0.139-0.37-0.219-0.601-0.219c-0.239,0-0.439,0.08-0.619,0.25c-0.18,0.158-0.27,0.359-0.27,0.609
				c0,0.279,0.091,0.49,0.261,0.641c0.18,0.148,0.39,0.219,0.629,0.219c0.24,0,0.44-0.07,0.61-0.219
				c0.17-0.16,0.261-0.371,0.261-0.641C192.85,476.107,192.759,475.897,192.579,475.746z"/>
			<path style="fill:#BBBCBF;" d="M200.379,478.397c-0.109-0.221-0.34-0.33-0.68-0.33c-0.23,0-0.43,0.09-0.58,0.25
				c-0.15,0.17-0.221,0.41-0.221,0.711v0.238c-0.309-0.408-0.649-0.709-1.02-0.898c-0.359-0.191-0.79-0.291-1.29-0.291
				c-0.42,0-0.8,0.08-1.149,0.23c-0.351,0.141-0.65,0.359-0.92,0.66c-0.261,0.289-0.471,0.65-0.61,1.07
				c-0.15,0.43-0.22,0.898-0.22,1.43c0,0.709,0.119,1.33,0.359,1.869c0.23,0.541,0.57,0.961,1.01,1.26
				c0.44,0.311,0.95,0.461,1.541,0.461c0.489,0,0.909-0.1,1.27-0.301c0.35-0.199,0.66-0.49,0.93-0.859
				c-0.01,0.57-0.02,0.99-0.04,1.25c-0.01,0.26-0.069,0.5-0.17,0.73c-0.1,0.23-0.28,0.4-0.53,0.529
				c-0.25,0.131-0.6,0.189-1.06,0.189c-0.22,0-0.42-0.02-0.59-0.059c-0.17-0.041-0.32-0.102-0.44-0.191
				c-0.119-0.08-0.24-0.18-0.34-0.299c-0.1-0.121-0.199-0.24-0.29-0.35c-0.191-0.23-0.42-0.34-0.68-0.34
				c-0.2,0-0.38,0.068-0.521,0.199c-0.149,0.141-0.22,0.311-0.22,0.529c0,0.281,0.13,0.551,0.38,0.82c0.26,0.27,0.631,0.49,1.1,0.66
				c0.48,0.17,1.02,0.25,1.631,0.25c0.66,0,1.21-0.061,1.65-0.199c0.449-0.131,0.81-0.33,1.079-0.611
				c0.28-0.27,0.48-0.619,0.601-1.039c0.119-0.42,0.189-0.92,0.189-1.51v-5.1C200.549,478.935,200.489,478.617,200.379,478.397z
				 M198.589,482.807c-0.159,0.311-0.37,0.551-0.63,0.699c-0.26,0.16-0.54,0.24-0.83,0.24c-0.49,0-0.9-0.18-1.21-0.549
				c-0.309-0.361-0.46-0.9-0.46-1.611c0-0.709,0.15-1.25,0.45-1.629c0.3-0.381,0.7-0.58,1.21-0.58c0.51,0,0.93,0.199,1.24,0.6
				c0.32,0.4,0.48,0.959,0.48,1.68C198.839,482.107,198.749,482.486,198.589,482.807z"/>
			<path style="fill:#BBBCBF;" d="M207.898,479.916c-0.029-0.24-0.109-0.48-0.219-0.689c-0.181-0.369-0.451-0.65-0.82-0.859
				c-0.36-0.201-0.78-0.301-1.24-0.301c-0.48,0-0.9,0.1-1.27,0.291c-0.101,0.049-0.19,0.109-0.291,0.18
				c-0.25,0.18-0.49,0.42-0.72,0.719v-0.219c0-0.211-0.04-0.391-0.11-0.531c-0.08-0.148-0.18-0.26-0.299-0.33
				c-0.131-0.068-0.27-0.109-0.421-0.109c-0.25,0-0.45,0.08-0.6,0.25c-0.15,0.16-0.22,0.41-0.22,0.75v5.08
				c0,0.34,0.08,0.6,0.25,0.789c0.16,0.182,0.369,0.281,0.619,0.281c0.26,0,0.48-0.09,0.641-0.27c0.17-0.182,0.25-0.451,0.25-0.801
				v-2.199c0-0.721,0.04-1.211,0.13-1.471c0.12-0.33,0.31-0.58,0.56-0.77c0.26-0.191,0.551-0.281,0.86-0.281
				c0.479,0,0.8,0.15,0.96,0.461c0.16,0.311,0.24,0.75,0.24,1.33v2.93c0,0.34,0.09,0.6,0.25,0.789
				c0.16,0.182,0.369,0.281,0.64,0.281c0.25,0,0.46-0.09,0.62-0.27c0.17-0.182,0.25-0.451,0.25-0.801v-3.27
				C207.959,480.486,207.939,480.166,207.898,479.916z"/>
			<path style="fill:#BBBCBF;" d="M214.769,482.797c-0.17,0-0.291,0.039-0.381,0.119c-0.22,0.201-0.399,0.371-0.539,0.49
				c-0.141,0.121-0.291,0.23-0.451,0.34c-0.159,0.1-0.33,0.18-0.5,0.23c-0.17,0.051-0.35,0.07-0.549,0.07h-0.011
				c-0.01,0-0.01,0-0.021,0c-0.31,0-0.6-0.08-0.859-0.23c-0.26-0.15-0.47-0.381-0.62-0.689c-0.03-0.061-0.06-0.111-0.08-0.17v-0.01
				c-0.11-0.262-0.159-0.561-0.17-0.871h3.44c0.46,0,0.82-0.07,1.07-0.199c0.25-0.131,0.379-0.42,0.379-0.861
				c0-0.478-0.119-0.939-0.369-1.398c-0.24-0.461-0.61-0.84-1.101-1.131c-0.489-0.289-1.079-0.43-1.77-0.43
				c-0.53,0-1.011,0.08-1.44,0.25c-0.43,0.17-0.8,0.42-1.09,0.73c-0.3,0.32-0.529,0.699-0.68,1.148
				c-0.15,0.442-0.23,0.922-0.23,1.442c0,1.1,0.311,1.98,0.94,2.619c0.62,0.641,1.5,0.971,2.63,0.971c0.49,0,0.93-0.07,1.311-0.201
				c0.01,0,0.029-0.01,0.039-0.01c0.36-0.129,0.66-0.289,0.91-0.469c0.25-0.201,0.43-0.4,0.561-0.611
				c0.119-0.219,0.189-0.398,0.189-0.559c0-0.182-0.061-0.32-0.17-0.42C215.1,482.846,214.949,482.797,214.769,482.797z
				 M211.109,479.727c0.279-0.301,0.64-0.449,1.07-0.449c0.459,0,0.829,0.148,1.109,0.449c0.29,0.301,0.45,0.75,0.49,1.35h-3.19
				C210.648,480.486,210.818,480.037,211.109,479.727z"/>
			<path style="fill:#BBBCBF;" d="M222.639,475.707c-0.14-0.17-0.35-0.25-0.609-0.25c-0.271,0-0.48,0.09-0.62,0.27
				c-0.14,0.189-0.22,0.459-0.22,0.82v2.6c-0.33-0.359-0.66-0.631-1.01-0.811c-0.351-0.17-0.781-0.26-1.281-0.26
				c-0.879,0-1.58,0.31-2.119,0.92c-0.54,0.621-0.811,1.471-0.811,2.57c0,0.52,0.07,1,0.211,1.449
				c0.129,0.451,0.329,0.842,0.59,1.17c0.26,0.33,0.569,0.58,0.93,0.762c0.359,0.18,0.75,0.27,1.17,0.27
				c0.32,0,0.609-0.051,0.88-0.141c0.27-0.08,0.52-0.209,0.75-0.379c0.229-0.17,0.46-0.391,0.69-0.66v0.17
				c0,0.32,0.08,0.57,0.24,0.75c0.159,0.17,0.35,0.26,0.6,0.26c0.24,0,0.439-0.09,0.59-0.25c0.16-0.17,0.24-0.42,0.24-0.76v-7.75
				C222.859,476.127,222.779,475.877,222.639,475.707z M220.869,482.877c-0.15,0.33-0.36,0.58-0.61,0.74
				c-0.26,0.16-0.54,0.24-0.85,0.24c-0.3,0-0.58-0.092-0.841-0.262c-0.26-0.17-0.459-0.42-0.609-0.75
				c-0.15-0.34-0.22-0.738-0.22-1.219c0-0.451,0.069-0.85,0.21-1.192c0.14-0.34,0.33-0.6,0.59-0.779
				c0.25-0.18,0.54-0.279,0.859-0.279c0.311,0,0.591,0.09,0.851,0.27c0.26,0.18,0.47,0.439,0.62,0.769
				c0.15,0.34,0.23,0.74,0.23,1.211C221.1,482.127,221.019,482.537,220.869,482.877z"/>
			<path style="fill:#BBBCBF;" d="M233.219,479.697c-0.24-0.521-0.58-0.92-1.02-1.201c-0.44-0.279-0.95-0.42-1.54-0.42
				c-0.5,0-0.931,0.1-1.271,0.281c-0.35,0.18-0.68,0.44-1.01,0.789v-2.69c0-0.32-0.08-0.57-0.22-0.74
				c-0.15-0.18-0.36-0.26-0.63-0.26c-0.25,0-0.45,0.09-0.6,0.27c-0.141,0.18-0.211,0.449-0.211,0.811v7.67
				c0,0.33,0.07,0.58,0.221,0.75c0.149,0.17,0.34,0.26,0.59,0.26s0.449-0.09,0.609-0.26c0.16-0.17,0.24-0.42,0.24-0.75v-0.17
				c0.189,0.219,0.35,0.389,0.46,0.5c0.12,0.109,0.261,0.219,0.431,0.33c0.17,0.1,0.369,0.189,0.609,0.25
				c0.24,0.059,0.49,0.1,0.76,0.1c0.44,0,0.851-0.09,1.221-0.27c0.359-0.182,0.68-0.432,0.93-0.762
				c0.26-0.318,0.46-0.709,0.59-1.148c0.141-0.451,0.2-0.93,0.2-1.471C233.579,480.846,233.459,480.227,233.219,479.697z
				 M231.339,483.277c-0.319,0.389-0.7,0.58-1.14,0.58c-0.52,0-0.94-0.191-1.26-0.57c-0.32-0.371-0.48-0.91-0.48-1.611
				c0-0.469,0.08-0.889,0.23-1.229c0.149-0.352,0.35-0.611,0.609-0.791c0.27-0.18,0.561-0.279,0.9-0.279
				c0.32,0,0.609,0.1,0.85,0.279c0.25,0.18,0.44,0.439,0.57,0.77c0.13,0.34,0.199,0.74,0.199,1.201
				C231.818,482.346,231.659,482.897,231.339,483.277z"/>
			<path style="fill:#BBBCBF;" d="M240.009,478.457c-0.069-0.121-0.159-0.211-0.28-0.281c-0.119-0.068-0.25-0.109-0.379-0.109
				c-0.19,0-0.33,0.029-0.431,0.1c-0.1,0.061-0.2,0.191-0.29,0.371c-0.09,0.189-0.189,0.439-0.3,0.77l-1.41,4.02l-1.489-4.33
				c-0.101-0.299-0.211-0.529-0.341-0.689c-0.13-0.16-0.319-0.24-0.569-0.24c-0.15,0-0.291,0.041-0.42,0.119
				c-0.141,0.07-0.25,0.182-0.32,0.311c-0.08,0.121-0.12,0.26-0.12,0.41c0,0.15,0.069,0.371,0.2,0.689l2.16,5.441l-0.16,0.398
				c-0.12,0.281-0.221,0.5-0.32,0.65c-0.09,0.15-0.189,0.25-0.311,0.311c-0.109,0.06-0.269,0.09-0.47,0.09
				c-0.09,0-0.18-0.01-0.29-0.039c-0.09-0.021-0.189-0.041-0.279-0.041c-0.24,0-0.42,0.06-0.541,0.17
				c-0.129,0.109-0.189,0.26-0.189,0.461c0,0.299,0.13,0.5,0.391,0.619c0.26,0.109,0.64,0.16,1.159,0.16
				c0.521,0,0.94-0.08,1.25-0.24c0.32-0.16,0.57-0.391,0.75-0.69c0.19-0.301,0.39-0.711,0.58-1.24l2.3-6
				c0.051-0.16,0.101-0.311,0.141-0.461c0.039-0.148,0.06-0.27,0.08-0.35C240.109,478.707,240.079,478.576,240.009,478.457z"/>
		</g>
		<g>
			<path style="fill:#BBBCBF;" d="M261.319,478.219h0.419v-0.527c0-0.551,0.067-0.986,0.207-1.313
				c0.139-0.324,0.377-0.561,0.71-0.707c0.332-0.148,0.788-0.223,1.367-0.223c1.029,0,1.54,0.25,1.54,0.756
				c0,0.162-0.054,0.301-0.163,0.416c-0.104,0.115-0.232,0.174-0.378,0.174c-0.067,0-0.188-0.012-0.357-0.039
				c-0.161-0.023-0.307-0.039-0.422-0.039c-0.317,0-0.52,0.096-0.614,0.281c-0.086,0.188-0.132,0.453-0.132,0.803v0.418h0.429
				c0.672,0,1.004,0.201,1.004,0.607c0,0.285-0.086,0.469-0.267,0.545c-0.177,0.078-0.423,0.117-0.737,0.117h-0.429v4.656
				c0,0.346-0.082,0.609-0.25,0.791c-0.164,0.186-0.376,0.275-0.639,0.275c-0.249,0-0.455-0.09-0.622-0.275
				c-0.166-0.182-0.247-0.445-0.247-0.791v-4.656h-0.484c-0.263,0-0.462-0.057-0.605-0.178c-0.142-0.115-0.213-0.271-0.213-0.459
				C260.435,478.428,260.73,478.219,261.319,478.219L261.319,478.219z"/>
			<path style="fill:#BBBCBF;" d="M267.072,482.676v1.469c0,0.355-0.09,0.623-0.253,0.799c-0.168,0.18-0.379,0.268-0.636,0.268
				c-0.259,0-0.466-0.088-0.628-0.271c-0.16-0.178-0.244-0.443-0.244-0.795v-4.895c0-0.791,0.284-1.185,0.854-1.185
				c0.294,0,0.503,0.092,0.633,0.275c0.128,0.186,0.199,0.457,0.215,0.82c0.208-0.363,0.423-0.635,0.643-0.82
				c0.225-0.184,0.517-0.275,0.888-0.275c0.372,0,0.727,0.092,1.074,0.275c0.349,0.186,0.522,0.432,0.522,0.736
				c0,0.213-0.075,0.393-0.221,0.529c-0.149,0.142-0.308,0.211-0.479,0.211c-0.067,0-0.225-0.043-0.47-0.121
				c-0.247-0.078-0.467-0.117-0.652-0.117c-0.258,0-0.47,0.068-0.632,0.201c-0.164,0.139-0.291,0.338-0.382,0.602
				c-0.088,0.268-0.148,0.586-0.185,0.951C267.088,481.699,267.072,482.148,267.072,482.676L267.072,482.676z"/>
			<path style="fill:#BBBCBF;" d="M275.889,482.797c-0.16,0-0.29,0.039-0.38,0.119c-0.22,0.201-0.399,0.371-0.54,0.481
				c-0.14,0.131-0.279,0.24-0.449,0.34c-0.16,0.109-0.33,0.19-0.5,0.23c-0.181,0.061-0.37,0.08-0.58,0.08
				c-0.311,0-0.601-0.08-0.86-0.23c-0.26-0.16-0.47-0.391-0.63-0.689c-0.15-0.301-0.23-0.66-0.24-1.061h3.44
				c0.46,0,0.819-0.061,1.069-0.189c0.25-0.141,0.38-0.42,0.38-0.861c0-0.478-0.12-0.939-0.37-1.408
				c-0.239-0.461-0.609-0.83-1.1-1.121c-0.49-0.289-1.08-0.43-1.77-0.43c-0.53,0-1.011,0.08-1.44,0.25
				c-0.43,0.17-0.8,0.41-1.09,0.73c-0.3,0.32-0.53,0.699-0.68,1.139c-0.16,0.451-0.23,0.932-0.23,1.451c0,1.1,0.31,1.98,0.94,2.619
				c0.619,0.641,1.5,0.961,2.63,0.961c0.489,0,0.93-0.06,1.31-0.191c0.38-0.129,0.7-0.289,0.95-0.478
				c0.25-0.201,0.44-0.4,0.57-0.621c0.12-0.209,0.18-0.389,0.18-0.549c0-0.182-0.06-0.32-0.17-0.42
				C276.219,482.846,276.069,482.797,275.889,482.797z M272.228,479.727c0.28-0.301,0.641-0.449,1.07-0.449
				c0.471,0,0.83,0.148,1.12,0.449c0.28,0.289,0.44,0.74,0.48,1.34h-3.19C271.77,480.477,271.939,480.037,272.228,479.727z"/>
			<path style="fill:#BBBCBF;" d="M283.199,482.797c-0.16,0-0.29,0.039-0.38,0.119c-0.221,0.201-0.4,0.371-0.54,0.481
				c-0.141,0.131-0.28,0.24-0.45,0.34c-0.16,0.109-0.33,0.19-0.51,0.23c-0.17,0.061-0.36,0.08-0.57,0.08c-0.31,0-0.6-0.08-0.86-0.23
				c-0.26-0.16-0.47-0.391-0.619-0.689c-0.16-0.301-0.24-0.66-0.25-1.061h3.44c0.46,0,0.82-0.061,1.07-0.189
				c0.25-0.141,0.38-0.42,0.38-0.861c0-0.478-0.12-0.939-0.37-1.408c-0.24-0.461-0.61-0.83-1.1-1.121
				c-0.5-0.289-1.08-0.43-1.771-0.43c-0.53,0-1.01,0.08-1.44,0.25c-0.439,0.17-0.8,0.41-1.09,0.73c-0.3,0.32-0.529,0.699-0.68,1.139
				c-0.16,0.451-0.24,0.932-0.24,1.451c0,1.1,0.32,1.98,0.95,2.619c0.62,0.641,1.5,0.961,2.63,0.961c0.49,0,0.93-0.06,1.311-0.191
				c0.38-0.129,0.699-0.289,0.949-0.478c0.25-0.201,0.44-0.4,0.56-0.621c0.13-0.209,0.18-0.389,0.18-0.549
				c0-0.182-0.05-0.32-0.16-0.42C283.529,482.846,283.379,482.797,283.199,482.797z M279.529,479.727
				c0.29-0.301,0.649-0.449,1.08-0.449c0.46,0,0.83,0.148,1.119,0.449c0.28,0.289,0.44,0.74,0.481,1.34h-3.19
				C279.079,480.477,279.249,480.037,279.529,479.727z"/>
			<path style="fill:#BBBCBF;" d="M291.509,481.416c-0.02-0.65-0.149-1.209-0.38-1.699c-0.27-0.531-0.63-0.939-1.08-1.221
				c-0.46-0.279-0.96-0.42-1.5-0.42c-0.45,0-0.85,0.1-1.2,0.291c-0.359,0.189-0.71,0.49-1.04,0.898v-0.209
				c0-0.33-0.069-0.57-0.229-0.74c-0.16-0.17-0.36-0.25-0.61-0.25s-0.449,0.08-0.6,0.24c-0.15,0.17-0.22,0.42-0.22,0.76v7.58
				c0,0.391,0.06,0.67,0.159,0.881c0.11,0.189,0.33,0.289,0.66,0.289c0.561,0,0.84-0.391,0.84-1.16v-2.629
				c0.181,0.219,0.36,0.408,0.551,0.568c0.14,0.121,0.279,0.221,0.43,0.311c0.34,0.201,0.76,0.301,1.26,0.301
				c0.42,0,0.811-0.08,1.17-0.24c0.37-0.17,0.681-0.41,0.95-0.711c0.26-0.309,0.47-0.689,0.63-1.139
				c0.15-0.451,0.221-0.951,0.221-1.49C291.52,481.557,291.52,481.486,291.509,481.416z M289.529,482.836
				c-0.15,0.34-0.34,0.59-0.601,0.76c-0.239,0.17-0.52,0.262-0.81,0.262c-0.06,0-0.12,0-0.17-0.021
				c-0.42-0.029-0.771-0.229-1.06-0.57c-0.33-0.379-0.489-0.93-0.489-1.629c0-0.74,0.159-1.301,0.5-1.689
				c0.329-0.381,0.739-0.57,1.22-0.57c0.31,0,0.59,0.09,0.84,0.27c0.25,0.18,0.44,0.43,0.58,0.769c0.15,0.33,0.22,0.731,0.22,1.191
				c0,0.43-0.06,0.799-0.19,1.109C289.559,482.756,289.549,482.797,289.529,482.836z"/>
			<path style="fill:#BBBCBF;" d="M293.909,478.326c-0.17-0.18-0.38-0.26-0.64-0.26c-0.25,0-0.461,0.08-0.62,0.26
				c-0.16,0.18-0.25,0.439-0.25,0.791v5.029c0,0.34,0.09,0.6,0.25,0.789c0.159,0.182,0.37,0.272,0.62,0.272
				c0.26,0,0.47-0.08,0.64-0.272c0.17-0.18,0.25-0.439,0.25-0.789v-5.08C294.159,478.746,294.079,478.506,293.909,478.326z
				 M293.899,475.746c-0.181-0.15-0.38-0.219-0.61-0.219c-0.23,0-0.44,0.08-0.62,0.238c-0.18,0.16-0.27,0.371-0.27,0.621
				c0,0.27,0.09,0.48,0.27,0.629c0.17,0.15,0.38,0.23,0.62,0.23c0.24,0,0.439-0.08,0.62-0.23c0.17-0.148,0.25-0.359,0.25-0.629
				C294.159,476.107,294.069,475.887,293.899,475.746z"/>
			<path style="fill:#BBBCBF;" d="M299.827,484.408l-1.548-2.551l-0.954,0.9v1.398c0,0.34-0.09,0.598-0.269,0.779
				c-0.175,0.186-0.384,0.275-0.614,0.275c-0.271,0-0.484-0.088-0.638-0.271c-0.153-0.178-0.232-0.443-0.232-0.795v-7.498
				c0-0.389,0.077-0.686,0.224-0.891c0.151-0.207,0.369-0.307,0.646-0.307c0.271,0,0.483,0.094,0.643,0.279
				c0.158,0.184,0.239,0.457,0.239,0.815v4.266l1.977-2.076c0.245-0.254,0.429-0.434,0.56-0.527
				c0.128-0.094,0.283-0.141,0.467-0.141c0.221,0,0.402,0.07,0.553,0.209c0.143,0.139,0.217,0.316,0.217,0.523
				c0,0.258-0.239,0.603-0.715,1.031l-0.933,0.855l1.802,2.836c0.131,0.213,0.229,0.367,0.287,0.478
				c0.058,0.108,0.088,0.217,0.088,0.313c0,0.279-0.077,0.498-0.23,0.66c-0.152,0.162-0.354,0.24-0.601,0.24
				c-0.214,0-0.382-0.055-0.497-0.174C300.185,484.92,300.024,484.711,299.827,484.408L299.827,484.408z"/>
			<path style="fill:#BBBCBF;" d="M303.646,485.211c-0.265,0-0.492-0.086-0.686-0.258c-0.192-0.168-0.291-0.41-0.291-0.721
				c0-0.262,0.094-0.488,0.278-0.676c0.186-0.189,0.412-0.283,0.684-0.283c0.268,0,0.498,0.094,0.692,0.279
				c0.19,0.188,0.286,0.414,0.286,0.68c0,0.307-0.097,0.547-0.286,0.717C304.129,485.125,303.903,485.211,303.646,485.211
				L303.646,485.211z"/>
			<path style="fill:#BBBCBF;" d="M312.389,483.035c0,0.219-0.066,0.453-0.197,0.701c-0.13,0.252-0.331,0.486-0.601,0.713
				c-0.268,0.225-0.604,0.408-1.013,0.543c-0.407,0.137-0.868,0.209-1.376,0.209c-1.089,0-1.938-0.318-2.547-0.949
				c-0.607-0.635-0.912-1.484-0.912-2.549c0-0.723,0.138-1.359,0.419-1.914c0.276-0.553,0.681-0.98,1.208-1.283
				c0.527-0.305,1.162-0.455,1.894-0.455c0.456,0,0.873,0.066,1.255,0.201c0.38,0.131,0.7,0.305,0.966,0.514
				c0.262,0.213,0.465,0.436,0.604,0.672c0.14,0.238,0.208,0.463,0.208,0.67c0,0.209-0.077,0.387-0.232,0.533
				c-0.159,0.147-0.35,0.221-0.568,0.221c-0.148,0-0.27-0.039-0.367-0.113c-0.097-0.076-0.206-0.197-0.324-0.367
				c-0.215-0.324-0.438-0.57-0.675-0.732c-0.232-0.164-0.528-0.244-0.89-0.244c-0.517,0-0.939,0.201-1.257,0.607
				c-0.316,0.404-0.477,0.963-0.477,1.664c0,0.33,0.043,0.637,0.124,0.912c0.079,0.277,0.197,0.514,0.353,0.709
				c0.156,0.193,0.342,0.342,0.561,0.443c0.22,0.104,0.461,0.152,0.721,0.152c0.353,0,0.655-0.082,0.905-0.244
				c0.255-0.164,0.477-0.412,0.669-0.748c0.107-0.197,0.222-0.35,0.345-0.463c0.124-0.111,0.277-0.168,0.458-0.168
				c0.215,0,0.393,0.082,0.533,0.244C312.316,482.678,312.389,482.853,312.389,483.035L312.389,483.035z"/>
			<path style="fill:#BBBCBF;" d="M319.728,480.185c-0.159-0.43-0.39-0.808-0.699-1.129c-0.311-0.32-0.681-0.561-1.11-0.73
				c-0.44-0.18-0.92-0.26-1.45-0.26c-0.529,0-1.01,0.08-1.439,0.25c-0.431,0.17-0.801,0.41-1.11,0.73
				c-0.3,0.31-0.54,0.689-0.7,1.129c-0.16,0.441-0.24,0.932-0.24,1.461s0.08,1.01,0.231,1.449c0.17,0.43,0.4,0.811,0.72,1.131
				c0.3,0.32,0.681,0.57,1.101,0.74c0.42,0.17,0.899,0.26,1.439,0.26c0.53,0,1.01-0.09,1.45-0.26c0.42-0.17,0.79-0.41,1.101-0.73
				c0.31-0.32,0.55-0.699,0.709-1.141c0.16-0.439,0.24-0.93,0.24-1.449C319.969,481.107,319.889,480.627,319.728,480.185z
				 M317.739,483.297c-0.32,0.41-0.74,0.609-1.271,0.609c-0.359,0-0.66-0.09-0.92-0.27c-0.26-0.189-0.46-0.451-0.6-0.801
				c-0.141-0.34-0.21-0.74-0.21-1.199c0-0.461,0.069-0.871,0.21-1.221c0.14-0.34,0.34-0.609,0.609-0.789
				c0.261-0.17,0.56-0.26,0.91-0.26c0.53,0,0.95,0.199,1.271,0.6c0.31,0.4,0.47,0.959,0.47,1.67
				C318.209,482.346,318.049,482.897,317.739,483.297z"/>
			<path style="fill:#BBBCBF;" d="M326.677,481.768v2.336c0,0.371-0.082,0.645-0.251,0.832c-0.169,0.186-0.387,0.277-0.662,0.277
				c-0.267,0-0.484-0.092-0.645-0.277c-0.168-0.188-0.252-0.461-0.252-0.832v-2.799c0-0.443-0.015-0.787-0.043-1.033
				c-0.031-0.24-0.114-0.443-0.246-0.598c-0.133-0.16-0.345-0.238-0.631-0.238c-0.576,0-0.953,0.195-1.136,0.596
				c-0.182,0.391-0.275,0.959-0.275,1.699v2.373c0,0.365-0.083,0.643-0.245,0.83c-0.169,0.186-0.385,0.279-0.654,0.279
				c-0.268,0-0.485-0.094-0.655-0.279c-0.17-0.188-0.255-0.465-0.255-0.83v-5.027c0-0.332,0.076-0.584,0.228-0.754
				c0.155-0.174,0.356-0.258,0.602-0.258c0.242,0,0.441,0.084,0.605,0.24c0.16,0.162,0.24,0.385,0.24,0.668v0.166
				c0.308-0.363,0.634-0.631,0.978-0.801c0.351-0.176,0.733-0.262,1.161-0.262c0.441,0,0.82,0.09,1.137,0.264
				c0.318,0.178,0.579,0.445,0.787,0.799c0.298-0.359,0.616-0.625,0.955-0.801c0.339-0.174,0.714-0.262,1.127-0.262
				c0.479,0,0.896,0.098,1.242,0.285c0.346,0.188,0.605,0.459,0.778,0.809c0.149,0.32,0.224,0.82,0.224,1.504v3.43
				c0,0.371-0.083,0.645-0.249,0.832c-0.167,0.186-0.39,0.277-0.664,0.277c-0.268,0-0.483-0.094-0.653-0.279
				c-0.17-0.188-0.255-0.465-0.255-0.83v-2.955c0-0.379-0.017-0.68-0.047-0.906c-0.032-0.228-0.12-0.422-0.26-0.574
				c-0.144-0.154-0.359-0.233-0.646-0.233c-0.232,0-0.452,0.072-0.66,0.207c-0.208,0.135-0.371,0.324-0.488,0.551
				C326.743,480.49,326.677,481.016,326.677,481.768L326.677,481.768z"/>
		</g>
		<g>
			<path style="fill:#BBBCBF;" d="M244.872,481.213c-0.001-0.002-0.001-0.006-0.001-0.012
				C244.871,481.207,244.871,481.211,244.872,481.213z"/>
			<path style="fill:#BBBCBF;" d="M244.961,481.775c0,0,0.001,0,0.002,0c-0.033-0.16-0.061-0.318-0.08-0.475
				C244.902,481.459,244.93,481.617,244.961,481.775z"/>
			<path style="fill:#BBBCBF;" d="M245.543,483.406c-0.004-0.006-0.008-0.014-0.012-0.022
				C245.535,483.393,245.539,483.4,245.543,483.406z"/>
			<path style="fill:#BBBCBF;" d="M245.486,483.299c-0.015-0.031-0.029-0.063-0.044-0.092
				C245.457,483.238,245.472,483.268,245.486,483.299z"/>
			<path style="fill:#BBBCBF;" d="M245.124,482.404c0.086,0.272,0.19,0.533,0.31,0.785c-0.121-0.256-0.224-0.52-0.307-0.785
				C245.127,482.404,245.125,482.404,245.124,482.404z"/>
			<path style="fill:#BBBCBF;" d="M251.675,474.48c0.34,0,0.59,0.025,0.878,0.074l0.081-0.516c0,0-0.794-0.244-1.837-0.16
				l-0.082-0.281c0.324-0.068,0.567-0.355,0.567-0.701c0-0.395-0.321-0.713-0.716-0.713c-0.396,0-0.716,0.318-0.716,0.713
				c0,0.346,0.243,0.633,0.567,0.701l0.09,0.314c-1.107,0.152-1.989,0.584-1.989,0.584l0.156,0.479
				c0.671-0.225,1.251-0.359,1.778-0.416C250.97,474.504,251.358,474.48,251.675,474.48z"/>
			<path style="fill:#BBBCBF;" d="M245.529,477.094l0.004-0.004c0.025-0.035,0.051-0.066,0.076-0.098l-0.211-0.152l-0.331-0.242
				c-0.019,0.025-0.539,0.504-0.95,1.389c-0.018-0.027-0.037-0.055-0.061-0.082c-0.123-0.133-0.295-0.201-0.514-0.197
				c-0.003,0-0.006,0-0.01,0c-0.136,0-0.229-0.047-0.289-0.102c0.061-0.076,0.096-0.172,0.096-0.279c0-0.25-0.203-0.453-0.453-0.453
				s-0.453,0.203-0.453,0.453s0.203,0.453,0.453,0.453c0.039,0,0.077-0.006,0.113-0.014c0.111,0.123,0.288,0.232,0.547,0.227
				c0.134-0.002,0.231,0.033,0.297,0.105c0.075,0.082,0.1,0.199,0.108,0.289c-0.001,0.002-0.001,0.004-0.002,0.004
				c-0.296,0.807-0.211,1.809-0.211,1.809l0.716,0.029c0.016-0.365,0.067-1.004,0.252-1.512
				C245.064,477.734,245.512,477.121,245.529,477.094z"/>
			<path style="fill:#BBBCBF;" d="M257.909,475.078c-0.249,0-0.453,0.203-0.453,0.453c0,0.039,0.006,0.076,0.016,0.113
				c-0.124,0.111-0.232,0.289-0.228,0.549c0.002,0.133-0.032,0.23-0.104,0.295c-0.058,0.051-0.13,0.078-0.2,0.096
				c-0.533-0.746-1.19-1.203-1.19-1.203l-0.514,0.551c0.389,0.354,0.785,0.797,1.171,1.35c0.267,0.381,0.542,0.875,0.77,1.365
				l0.693-0.33c0,0-0.316-0.783-0.763-1.484c0.077-0.027,0.155-0.07,0.225-0.131c0.136-0.123,0.202-0.295,0.198-0.514
				c-0.001-0.141,0.045-0.236,0.101-0.299c0.077,0.059,0.174,0.098,0.279,0.098c0.252,0,0.454-0.205,0.454-0.455
				S258.161,475.078,257.909,475.078z"/>
			<path style="fill:#BBBCBF;" d="M256.108,481.315c-0.955,0.467-2.527,1.08-4.596,1.369c-0.812,0.113-1.599,0.154-2.323,0.154
				c-0.943,0-1.775-0.07-2.414-0.15c-0.73-0.092-1.301-0.205-1.648-0.283c0.083,0.266,0.185,0.529,0.307,0.785
				c0.003,0.006,0.006,0.014,0.009,0.017c0.015,0.029,0.029,0.061,0.044,0.092c0.016,0.029,0.029,0.059,0.045,0.086
				c0.004,0.008,0.008,0.016,0.012,0.022c0.205,0.387,0.451,0.742,0.732,1.051c0.975,1.066,1.97,1.236,1.979,1.236l0.016,0.002
				l0.016,0.006c0.008,0.004,0.89,0.287,2.23,0.287c1.318,0,2.612-0.266,3.845-0.791c0.913-0.467,1.777-1.176,2.205-1.809
				c0.331-0.49,0.57-1.012,0.712-1.555c0.075-0.289,0.135-0.75,0.1-1.236C257.108,480.777,256.684,481.035,256.108,481.315z"/>
			<path style="fill:#BBBCBF;" d="M256.089,477.496c-1.35-1.939-2.819-2.439-3.569-2.561c-0.29-0.049-0.52-0.068-0.841-0.068
				c-0.31,0-0.68,0.02-1.189,0.068c-0.5,0.051-1.06,0.192-1.71,0.41c-0.92,0.301-1.74,0.781-2.391,1.381l-0.02,0.02
				c-0.1,0.09-0.301,0.281-0.53,0.57c-0.03,0.041-0.45,0.631-0.77,1.529c-0.25,0.682-0.239,1.66-0.239,1.67
				c0,0.23,0.021,0.461,0.04,0.691c0,0,0,0,0,0.01c0.01,0.029,0.01,0.049,0.01,0.08c0.02,0.16,0.051,0.32,0.08,0.48
				c0.48,0.119,3.31,0.779,6.47,0.34c1.99-0.281,3.49-0.861,4.41-1.311c0.76-0.359,1.25-0.699,1.44-0.84
				C257.089,479.277,256.569,478.176,256.089,477.496z M248.568,480.637c-1.06,0-1.909-0.85-1.909-1.91c0-1.051,0.85-1.9,1.909-1.9
				c1.051,0,1.91,0.85,1.91,1.9C250.478,479.787,249.619,480.637,248.568,480.637z M254.149,479.236
				c-0.65,0-1.181-0.529-1.181-1.189c0-0.65,0.53-1.18,1.181-1.18c0.649,0,1.18,0.529,1.18,1.18
				C255.329,478.707,254.799,479.236,254.149,479.236z"/>
		</g>
	</g>
</g>
</svg>
