<svg width="32" height="32" viewBox="0 0 32 32" fill="none" xmlns="http://www.w3.org/2000/svg">
<path d="M16.9467 20.3867L23.0667 14.2667C23.1901 14.1432 23.2881 13.9967 23.3549 13.8354C23.4217 13.6741 23.4561 13.5013 23.4561 13.3267C23.4561 13.1521 23.4217 12.9792 23.3549 12.818C23.2881 12.6567 23.1901 12.5101 23.0667 12.3867C22.9433 12.2632 22.7967 12.1653 22.6354 12.0985C22.4741 12.0317 22.3013 11.9973 22.1267 11.9973C21.9521 11.9973 21.7793 12.0317 21.618 12.0985C21.4567 12.1653 21.3101 12.2632 21.1867 12.3867L16 17.56L10.8267 12.3867C10.7032 12.2632 10.5567 12.1653 10.3954 12.0985C10.2341 12.0317 10.0613 11.9973 9.8867 11.9973C9.71212 11.9973 9.53926 12.0317 9.37797 12.0985C9.21668 12.1653 9.07014 12.2632 8.94669 12.3867C8.82325 12.5101 8.72533 12.6567 8.65853 12.818C8.59172 12.9792 8.55733 13.1521 8.55733 13.3267C8.55733 13.5013 8.59172 13.6741 8.65853 13.8354C8.72533 13.9967 8.82325 14.1432 8.94669 14.2667L15.0667 20.3867C15.19 20.5103 15.3366 20.6084 15.4979 20.6753C15.6592 20.7422 15.8321 20.7766 16.0067 20.7766C16.1813 20.7766 16.3542 20.7422 16.5155 20.6753C16.6768 20.6084 16.8233 20.5103 16.9467 20.3867Z" fill="#1CB5BD"/>
</svg>
