<svg width="18" height="18" viewBox="0 0 18 18" fill="none" xmlns="http://www.w3.org/2000/svg">
<g clip-path="url(#clip0_101_14122)">
<path d="M17.5375 9.15489C17.5375 4.41017 13.7148 0.564026 8.99999 0.564026C4.28302 0.565093 0.460358 4.41017 0.460358 9.15595C0.460358 13.4428 3.58295 16.9966 7.66387 17.6412V11.6382H5.49748V9.15595H7.66601V7.26169C7.66601 5.10918 8.9413 3.92033 10.891 3.92033C11.8259 3.92033 12.8024 4.08788 12.8024 4.08788V6.20091H11.7256C10.6659 6.20091 10.335 6.86363 10.335 7.54343V9.15489H12.7021L12.3243 11.6372H10.334V17.6401C14.4149 16.9955 17.5375 13.4418 17.5375 9.15489Z" fill="#059BE5"/>
</g>
<defs>
<clipPath id="clip0_101_14122">
<rect x="0.462494" y="0.565094" width="17.075" height="17.075" rx="8.5375" fill="white"/>
</clipPath>
</defs>
</svg>
