<svg width="18" height="18" viewBox="0 0 18 18" fill="none" xmlns="http://www.w3.org/2000/svg">
<g clip-path="url(#clip0_101_14097)">
<path d="M17.3711 7.43041H16.6835V7.39498H8.99985V10.8099H13.8247C13.1208 12.7978 11.2294 14.2249 8.99985 14.2249C6.17099 14.2249 3.87743 11.9313 3.87743 9.10245C3.87743 6.27359 6.17099 3.98004 8.99985 3.98004C10.3056 3.98004 11.4936 4.47264 12.3981 5.27729L14.8129 2.8625C13.2882 1.44145 11.2486 0.565094 8.99985 0.565094C4.28509 0.565094 0.462494 4.38769 0.462494 9.10245C0.462494 13.8172 4.28509 17.6398 8.99985 17.6398C13.7146 17.6398 17.5372 13.8172 17.5372 9.10245C17.5372 8.53002 17.4783 7.97125 17.3711 7.43041Z" fill="#FFC107"/>
<path d="M1.44627 5.12874L4.25122 7.18581C5.01019 5.30674 6.84828 3.98003 8.99927 3.98003C10.3051 3.98003 11.493 4.47264 12.3976 5.27729L14.8124 2.8625C13.2876 1.44145 11.248 0.565094 8.99927 0.565094C5.72007 0.565094 2.87628 2.41642 1.44627 5.12874Z" fill="#FF3D00"/>
<path d="M8.99998 17.6401C11.2052 17.6401 13.2089 16.7962 14.7238 15.4238L12.0815 13.1879C11.1956 13.8616 10.113 14.226 8.99998 14.2251C6.77941 14.2251 4.89394 12.8092 4.18363 10.8333L1.3996 12.9783C2.81253 15.7431 5.68193 17.6401 8.99998 17.6401Z" fill="#4CAF50"/>
<path d="M17.3711 7.43042H16.6835V7.39499H8.99983V10.8099H13.8247C13.488 11.756 12.8815 12.5828 12.0801 13.188L12.0814 13.1872L14.7237 15.4231C14.5367 15.593 17.5372 13.3711 17.5372 9.10246C17.5372 8.53003 17.4783 7.97126 17.3711 7.43042Z" fill="#1976D2"/>
</g>
<defs>
<clipPath id="clip0_101_14097">
<rect x="0.462494" y="0.565094" width="17.075" height="17.075" rx="8.5375" fill="white"/>
</clipPath>
</defs>
</svg>
