<svg width="30" height="24" viewBox="0 0 30 24" fill="none" xmlns="http://www.w3.org/2000/svg">
<path d="M23 22.6667L28.0987 17.568C28.2487 17.4181 28.3331 17.2148 28.3333 17.0027V10C28.3333 9.46957 28.1226 8.96086 27.7475 8.58579C27.3725 8.21071 26.8638 8 26.3333 8V8C25.8029 8 25.2942 8.21071 24.9191 8.58579C24.544 8.96086 24.3333 9.46957 24.3333 10V16" stroke="black" stroke-width="1.5" stroke-linecap="round" stroke-linejoin="round"/>
<path d="M23 17.3333L24.144 16.1893C24.2041 16.1293 24.2517 16.058 24.2842 15.9795C24.3167 15.9011 24.3334 15.8169 24.3333 15.732C24.3331 15.6121 24.2996 15.4946 24.2365 15.3927C24.1734 15.2907 24.0832 15.2083 23.976 15.1547L23.3853 14.86C22.8849 14.6098 22.3184 14.5233 21.7662 14.6128C21.2139 14.7023 20.7037 14.9632 20.308 15.3587L19.1146 16.552C18.6145 17.052 18.3334 17.7301 18.3333 18.4373V22.6667M6.99996 22.6667L1.90129 17.568C1.75122 17.4181 1.66681 17.2148 1.66663 17.0027V10C1.66663 9.46957 1.87734 8.96086 2.25241 8.58579C2.62749 8.21071 3.13619 8 3.66663 8V8C4.19706 8 4.70577 8.21071 5.08084 8.58579C5.45591 8.96086 5.66663 9.46957 5.66663 10V16" stroke="black" stroke-width="1.5" stroke-linecap="round" stroke-linejoin="round"/>
<path d="M6.99996 17.3333L5.85596 16.1893C5.79592 16.1293 5.74829 16.0579 5.7158 15.9795C5.68332 15.901 5.66661 15.8169 5.66663 15.732V15.732C5.66663 15.488 5.80529 15.2653 6.02396 15.1546L6.61463 14.86C7.11504 14.6098 7.68148 14.5233 8.23375 14.6128C8.78603 14.7023 9.29617 14.9632 9.69196 15.3586L10.8853 16.552C11.3854 17.052 11.6665 17.7301 11.6666 18.4373V22.6666M17.2226 12H12.7773V8.88931H9.66663V4.44398H12.7773V1.33331H17.2226V4.44398H20.3333V8.88931H17.2226V12V12Z" stroke="black" stroke-width="1.5" stroke-linecap="round" stroke-linejoin="round"/>
</svg>
