<svg width="36" height="36" viewBox="0 0 36 36" fill="none" xmlns="http://www.w3.org/2000/svg">
<path d="M18 24C21.3137 24 24 21.3137 24 18C24 14.6863 21.3137 12 18 12C14.6863 12 12 14.6863 12 18C12 21.3137 14.6863 24 18 24Z" fill="black"/>
<path d="M19.5 6.1035V3H16.5V6.1035C13.8604 6.44052 11.4075 7.64426 9.52586 9.52586C7.64426 11.4075 6.44052 13.8604 6.1035 16.5H3V19.5H6.1035C6.44003 22.1397 7.6436 24.593 9.52529 26.4747C11.407 28.3564 13.8603 29.56 16.5 29.8965V33H19.5V29.8965C22.1398 29.5602 24.5932 28.3567 26.475 26.475C28.3567 24.5932 29.5602 22.1398 29.8965 19.5H33V16.5H29.8965C29.56 13.8603 28.3564 11.407 26.4747 9.52529C24.593 7.6436 22.1397 6.44003 19.5 6.1035ZM18 27C13.0365 27 9 22.9635 9 18C9 13.0365 13.0365 9 18 9C22.9635 9 27 13.0365 27 18C27 22.9635 22.9635 27 18 27Z" fill="black"/>
</svg>
