<svg width="36" height="36" viewBox="0 0 36 36" fill="none" xmlns="http://www.w3.org/2000/svg">
<path d="M10.6013 26.2189V26.7165V29.8017L13.6777 28.095L14.0374 27.8955L14.4334 28.0068C15.5622 28.3242 16.7566 28.4945 18.0013 28.4945C24.8933 28.4945 30.3661 23.2851 30.3663 16.9982L10.6013 26.2189ZM10.6013 26.2189L10.2043 25.9188M10.6013 26.2189L10.2043 25.9188M10.2043 25.9188C7.40083 23.7995 5.63477 20.5803 5.63477 16.998C5.63477 10.7081 11.1076 5.5 17.9998 5.5M10.2043 25.9188L17.9998 5.5M17.9998 5.5C24.8918 5.5 30.3648 10.7079 30.3663 16.998L17.9998 5.5ZM18.6864 21.9516L19.4145 22.7078L20.1345 21.9439L27.4335 14.1994L26.2218 12.6384L20.2353 15.9493L17.3103 12.9101L16.5821 12.1535L15.862 12.9177L8.56447 20.6622L9.77617 22.2231L15.7614 18.9136L18.6864 21.9516Z" stroke="#1CB5BD" stroke-width="2"/>
</svg>
