<svg width="36" height="36" viewBox="0 0 36 36" fill="none" xmlns="http://www.w3.org/2000/svg">
<path d="M8.35543 11.8294C7.92681 9.00342 9.92256 6.45867 12.9713 5.52492C13.5126 5.35924 14.0968 5.40632 14.6046 5.65656C15.1124 5.9068 15.5055 6.34134 15.7039 6.87155L16.6816 9.48155C16.8387 9.90139 16.8669 10.3586 16.7625 10.7946C16.6581 11.2305 16.4258 11.6254 16.0954 11.9284L13.1873 14.5958C13.0439 14.7276 12.937 14.8942 12.8771 15.0795C12.8171 15.2648 12.8062 15.4625 12.8453 15.6533L12.8712 15.7703L12.9432 16.0639C13.0073 16.3114 13.1041 16.6602 13.2402 17.0764C13.5102 17.9033 13.9411 19.0148 14.5823 20.1252C15.2236 21.2355 15.9706 22.1648 16.5511 22.8117C16.8534 23.1485 17.1694 23.4728 17.4983 23.7837L17.5883 23.8669C17.7338 23.9957 17.9101 24.0847 18.1002 24.1251C18.2902 24.1655 18.4875 24.156 18.6728 24.0975L22.4371 22.9129C22.8647 22.7785 23.3228 22.7749 23.7526 22.9026C24.1824 23.0302 24.5642 23.2834 24.8491 23.6295L26.6299 25.7918C27.3724 26.6918 27.2847 28.0148 26.4308 28.8102C24.0976 30.9848 20.8891 31.4314 18.6571 29.6359C15.9212 27.4294 13.6148 24.7382 11.8531 21.6968C10.0767 18.6574 8.8901 15.3101 8.35543 11.8305V11.8294ZM15.2022 15.8007L17.6164 13.5867C18.2771 12.9806 18.7417 12.1909 18.9505 11.319C19.1594 10.447 19.103 9.5326 18.7887 8.69292L17.8099 6.08292C17.4106 5.01657 16.6197 4.14263 15.5983 3.63927C14.577 3.1359 13.4021 3.04101 12.3132 3.37392C8.52756 4.53267 5.48781 7.9268 6.13131 12.1669C6.70843 15.9267 7.98972 19.5438 9.90793 22.8285C11.8081 26.1083 14.2957 29.0104 17.2463 31.3898C20.5932 34.0786 25.0639 33.1617 27.9653 30.456C28.7955 29.6823 29.2993 28.621 29.3739 27.4886C29.4485 26.3562 29.0884 25.238 28.3669 24.3619L26.5861 22.1997C26.0162 21.5071 25.2524 21.0007 24.3926 20.7453C23.5329 20.4899 22.6165 20.4973 21.7609 20.7664L18.6368 21.7497C18.497 21.6058 18.3601 21.4592 18.2262 21.3098C17.5841 20.5995 17.0161 19.8256 16.5308 19.0002C16.0584 18.1671 15.672 17.288 15.3777 16.3767C15.3153 16.1859 15.2568 15.9938 15.2022 15.8007Z" fill="#1CB5BD"/>
</svg>
