<svg width="32" height="32" viewBox="0 0 32 32" fill="none" xmlns="http://www.w3.org/2000/svg">
<path d="M16.0001 2.66669C8.64808 2.66669 2.66675 8.64802 2.66675 16C2.66675 23.352 8.64808 29.3334 16.0001 29.3334C23.3521 29.3334 29.3334 23.352 29.3334 16C29.3334 8.64802 23.3521 2.66669 16.0001 2.66669ZM16.0001 26.6667C10.1187 26.6667 5.33341 21.8814 5.33341 16C5.33341 10.1187 10.1187 5.33335 16.0001 5.33335C21.8814 5.33335 26.6667 10.1187 26.6667 16C26.6667 21.8814 21.8814 26.6667 16.0001 26.6667Z" fill="black"/>
<path d="M17.3334 9.33331H14.6667V17.3333H22.6667V14.6666H17.3334V9.33331Z" fill="black"/>
</svg>
