<svg width="496" height="592" viewBox="0 0 496 592" fill="none" xmlns="http://www.w3.org/2000/svg">
<mask id="path-1-inside-1_9_17" fill="white">
<path d="M0 242C0 108.347 108.347 0 242 0H254C387.653 0 496 108.347 496 242V350C496 483.653 387.653 592 254 592H242C108.347 592 0 483.653 0 350V242Z"/>
</mask>
<path d="M0 242C0 108.347 108.347 0 242 0H254C387.653 0 496 108.347 496 242V350C496 483.653 387.653 592 254 592H242C108.347 592 0 483.653 0 350V242Z" fill="#6ACCD3" fill-opacity="0.15"/>
<path d="M0 242C0 107.243 109.243 -2 244 -2H252C386.757 -2 496 107.243 496 242C496 109.452 387.653 2 254 2H242C108.347 2 0 109.452 0 242ZM496 592H0H496ZM0 592V0V592ZM496 0V592V0Z" fill="#1CB5BD" mask="url(#path-1-inside-1_9_17)"/>
</svg>
