<svg width="24" height="30" viewBox="0 0 24 30" fill="none" xmlns="http://www.w3.org/2000/svg">
<path d="M2.35543 8.82942C1.92681 6.00342 3.92256 3.45867 6.97131 2.52492C7.51263 2.35924 8.09676 2.40632 8.60456 2.65656C9.11235 2.9068 9.50555 3.34134 9.70393 3.87155L10.6816 6.48155C10.8387 6.90139 10.8669 7.35861 10.7625 7.79457C10.6581 8.23054 10.4258 8.62537 10.0954 8.92842L7.18731 11.5958C7.04389 11.7276 6.93701 11.8942 6.87708 12.0795C6.81715 12.2648 6.8062 12.4625 6.84531 12.6533L6.87118 12.7703L6.94318 13.0639C7.00731 13.3114 7.10406 13.6602 7.24018 14.0764C7.51018 14.9033 7.94106 16.0148 8.58231 17.1252C9.22356 18.2355 9.97056 19.1648 10.5511 19.8117C10.8534 20.1485 11.1694 20.4728 11.4983 20.7837L11.5883 20.8669C11.7338 20.9957 11.9101 21.0847 12.1002 21.1251C12.2902 21.1655 12.4875 21.156 12.6728 21.0975L16.4371 19.9129C16.8647 19.7785 17.3228 19.7749 17.7526 19.9026C18.1824 20.0302 18.5642 20.2834 18.8491 20.6295L20.6299 22.7918C21.3724 23.6918 21.2847 25.0148 20.4308 25.8102C18.0976 27.9848 14.8891 28.4314 12.6571 26.6359C9.92123 24.4294 7.61482 21.7382 5.85306 18.6968C4.07675 15.6574 2.8901 12.3101 2.35543 8.83055V8.82942ZM9.20218 12.8007L11.6164 10.5867C12.2771 9.98056 12.7417 9.1909 12.9505 8.31897C13.1594 7.44704 13.103 6.5326 12.7887 5.69292L11.8099 3.08292C11.4106 2.01657 10.6197 1.14263 9.59834 0.639268C8.57697 0.135904 7.40209 0.0410078 6.31318 0.373923C2.52756 1.53267 -0.512191 4.9268 0.131309 9.16692C0.708432 12.9267 1.98972 16.5438 3.90793 19.8285C5.80814 23.1083 8.29569 26.0104 11.2463 28.3898C14.5932 31.0786 19.0639 30.1617 21.9653 27.456C22.7955 26.6823 23.2993 25.621 23.3739 24.4886C23.4485 23.3562 23.0884 22.238 22.3669 21.3619L20.5861 19.1997C20.0162 18.5071 19.2524 18.0007 18.3926 17.7453C17.5329 17.4899 16.6165 17.4973 15.7609 17.7664L12.6368 18.7497C12.497 18.6058 12.3601 18.4592 12.2262 18.3098C11.5841 17.5995 11.0161 16.8256 10.5308 16.0002C10.0584 15.1671 9.67204 14.288 9.37768 13.3767C9.31526 13.1859 9.25675 12.9938 9.20218 12.8007Z" fill="black"/>
</svg>
