<svg width="32" height="32" viewBox="0 0 32 32" fill="none" xmlns="http://www.w3.org/2000/svg">
<path d="M16.0003 2.66663C8.64833 2.66663 2.66699 8.64796 2.66699 16C2.66699 23.352 8.64833 29.3333 16.0003 29.3333C23.3523 29.3333 29.3337 23.352 29.3337 16C29.3337 8.64796 23.3523 2.66663 16.0003 2.66663ZM16.0003 26.6666C10.119 26.6666 5.33366 21.8813 5.33366 16C5.33366 10.1186 10.119 5.33329 16.0003 5.33329C21.8817 5.33329 26.667 10.1186 26.667 16C26.667 21.8813 21.8817 26.6666 16.0003 26.6666Z" fill="black"/>
<path d="M17.3337 9.33337H14.667V17.3334H22.667V14.6667H17.3337V9.33337Z" fill="black"/>
</svg>
