<svg width="142" height="28" viewBox="0 0 142 28" fill="none" xmlns="http://www.w3.org/2000/svg">
<path d="M0.772 27V3.528H6.568L10.348 13.968C10.588 14.64 10.816 15.348 11.032 16.092C11.248 16.836 11.476 17.568 11.716 18.288H11.86C12.1 17.568 12.316 16.836 12.508 16.092C12.724 15.348 12.952 14.64 13.192 13.968L16.9 3.528H22.66V27H17.836V18.396C17.836 17.628 17.872 16.776 17.944 15.84C18.04 14.88 18.136 13.92 18.232 12.96C18.352 12 18.448 11.148 18.52 10.404H18.376L16.468 15.984L13.12 24.948H10.204L6.856 15.984L4.984 10.404H4.84C4.936 11.148 5.032 12 5.128 12.96C5.224 13.92 5.308 14.88 5.38 15.84C5.476 16.776 5.524 17.628 5.524 18.396V27H0.772ZM35.7539 27.432C34.0499 27.432 32.5139 27.06 31.1459 26.316C29.7779 25.572 28.6979 24.504 27.9059 23.112C27.1139 21.72 26.7179 20.04 26.7179 18.072C26.7179 16.128 27.1139 14.46 27.9059 13.068C28.7219 11.676 29.7779 10.608 31.0739 9.864C32.3699 9.096 33.7259 8.712 35.1419 8.712C36.8459 8.712 38.2499 9.096 39.3539 9.864C40.4819 10.608 41.3219 11.628 41.8739 12.924C42.4499 14.196 42.7379 15.648 42.7379 17.28C42.7379 17.736 42.7139 18.192 42.6659 18.648C42.6179 19.08 42.5699 19.404 42.5219 19.62H31.8299C32.0699 20.916 32.6099 21.876 33.4499 22.5C34.2899 23.1 35.2979 23.4 36.4739 23.4C37.7459 23.4 39.0299 23.004 40.3259 22.212L42.0899 25.416C41.1779 26.04 40.1579 26.532 39.0299 26.892C37.9019 27.252 36.8099 27.432 35.7539 27.432ZM31.7939 16.128H38.2379C38.2379 15.144 37.9979 14.34 37.5179 13.716C37.0619 13.068 36.3059 12.744 35.2499 12.744C34.4339 12.744 33.7019 13.032 33.0539 13.608C32.4059 14.16 31.9859 15 31.7939 16.128ZM52.7667 27.432C50.5587 27.432 48.7827 26.604 47.4387 24.948C46.1187 23.268 45.4587 20.976 45.4587 18.072C45.4587 16.128 45.8067 14.46 46.5027 13.068C47.2227 11.652 48.1467 10.572 49.2747 9.828C50.4267 9.084 51.6267 8.712 52.8747 8.712C53.8587 8.712 54.6867 8.88 55.3587 9.216C56.0307 9.552 56.6667 10.008 57.2667 10.584L57.0507 7.848V1.764H62.3427V27H58.0227L57.6627 25.236H57.5187C56.8947 25.86 56.1627 26.388 55.3227 26.82C54.4827 27.228 53.6307 27.432 52.7667 27.432ZM54.1347 23.112C54.7107 23.112 55.2267 22.992 55.6827 22.752C56.1627 22.512 56.6187 22.092 57.0507 21.492V14.184C56.5947 13.752 56.1027 13.452 55.5747 13.284C55.0707 13.116 54.5787 13.032 54.0987 13.032C53.2587 13.032 52.5147 13.44 51.8667 14.256C51.2187 15.048 50.8947 16.296 50.8947 18C50.8947 19.752 51.1707 21.048 51.7227 21.888C52.2987 22.704 53.1027 23.112 54.1347 23.112ZM67.0314 27V9.144H72.3234V27H67.0314ZM69.6594 6.516C68.7714 6.516 68.0514 6.264 67.4994 5.76C66.9474 5.256 66.6714 4.584 66.6714 3.744C66.6714 2.904 66.9474 2.232 67.4994 1.728C68.0514 1.224 68.7714 0.971998 69.6594 0.971998C70.5474 0.971998 71.2674 1.224 71.8194 1.728C72.3714 2.232 72.6474 2.904 72.6474 3.744C72.6474 4.584 72.3714 5.256 71.8194 5.76C71.2674 6.264 70.5474 6.516 69.6594 6.516Z" fill="black"/>
<path d="M84.7566 27.432C83.1006 27.432 81.6006 27.072 80.2566 26.352C78.9366 25.608 77.8806 24.54 77.0886 23.148C76.3206 21.732 75.9366 20.04 75.9366 18.072C75.9366 16.08 76.3686 14.388 77.2326 12.996C78.0966 11.604 79.2366 10.548 80.6526 9.828C82.0686 9.084 83.5926 8.712 85.2246 8.712C86.3286 8.712 87.3006 8.892 88.1406 9.252C89.0046 9.612 89.7726 10.068 90.4446 10.62L87.9606 14.04C87.1206 13.344 86.3166 12.996 85.5486 12.996C84.2766 12.996 83.2566 13.452 82.4886 14.364C81.7446 15.276 81.3726 16.512 81.3726 18.072C81.3726 19.608 81.7446 20.844 82.4886 21.78C83.2566 22.692 84.2166 23.148 85.3686 23.148C85.9446 23.148 86.5086 23.028 87.0606 22.788C87.6126 22.524 88.1166 22.212 88.5726 21.852L90.6606 25.308C89.7726 26.076 88.8126 26.628 87.7806 26.964C86.7486 27.276 85.7406 27.432 84.7566 27.432ZM97.9338 27.432C96.3018 27.432 95.0058 26.916 94.0458 25.884C93.0858 24.828 92.6058 23.544 92.6058 22.032C92.6058 20.16 93.3978 18.696 94.9818 17.64C96.5658 16.584 99.1218 15.876 102.65 15.516C102.602 14.724 102.362 14.1 101.93 13.644C101.522 13.164 100.826 12.924 99.8418 12.924C99.0978 12.924 98.3418 13.068 97.5738 13.356C96.8058 13.644 95.9898 14.04 95.1258 14.544L93.2178 11.052C94.3458 10.356 95.5458 9.792 96.8178 9.36C98.1138 8.928 99.4578 8.712 100.85 8.712C103.13 8.712 104.882 9.372 106.106 10.692C107.33 12.012 107.942 14.04 107.942 16.776V27H103.622L103.262 25.164H103.118C102.374 25.836 101.57 26.388 100.706 26.82C99.8658 27.228 98.9418 27.432 97.9338 27.432ZM99.7338 23.328C100.334 23.328 100.85 23.196 101.282 22.932C101.738 22.644 102.194 22.272 102.65 21.816V18.684C100.778 18.924 99.4818 19.308 98.7618 19.836C98.0418 20.34 97.6818 20.94 97.6818 21.636C97.6818 22.212 97.8618 22.644 98.2218 22.932C98.6058 23.196 99.1098 23.328 99.7338 23.328ZM112.418 27V9.144H116.738L117.098 12.276H117.242C117.89 11.076 118.67 10.188 119.582 9.612C120.494 9.012 121.406 8.712 122.318 8.712C122.822 8.712 123.242 8.748 123.578 8.82C123.914 8.868 124.202 8.952 124.442 9.072L123.578 13.644C123.266 13.548 122.954 13.476 122.642 13.428C122.354 13.38 122.018 13.356 121.634 13.356C120.962 13.356 120.254 13.608 119.51 14.112C118.79 14.592 118.19 15.432 117.71 16.632V27H112.418ZM134.402 27.432C132.698 27.432 131.162 27.06 129.794 26.316C128.426 25.572 127.346 24.504 126.554 23.112C125.762 21.72 125.366 20.04 125.366 18.072C125.366 16.128 125.762 14.46 126.554 13.068C127.37 11.676 128.426 10.608 129.722 9.864C131.018 9.096 132.374 8.712 133.79 8.712C135.494 8.712 136.898 9.096 138.002 9.864C139.13 10.608 139.97 11.628 140.522 12.924C141.098 14.196 141.386 15.648 141.386 17.28C141.386 17.736 141.362 18.192 141.314 18.648C141.266 19.08 141.218 19.404 141.17 19.62H130.478C130.718 20.916 131.258 21.876 132.098 22.5C132.938 23.1 133.946 23.4 135.122 23.4C136.394 23.4 137.678 23.004 138.974 22.212L140.738 25.416C139.826 26.04 138.806 26.532 137.678 26.892C136.55 27.252 135.458 27.432 134.402 27.432ZM130.442 16.128H136.886C136.886 15.144 136.646 14.34 136.166 13.716C135.71 13.068 134.954 12.744 133.898 12.744C133.082 12.744 132.35 13.032 131.702 13.608C131.054 14.16 130.634 15 130.442 16.128Z" fill="#1CB5BD"/>
</svg>
