<svg width="70" height="70" viewBox="0 0 70 70" fill="none" xmlns="http://www.w3.org/2000/svg">
<path fill-rule="evenodd" clip-rule="evenodd" d="M56.875 11.6667H13.125C12.3196 11.6667 11.6667 12.3196 11.6667 13.125V56.875C11.6667 57.6804 12.3196 58.3333 13.125 58.3333H56.875C57.6804 58.3333 58.3333 57.6804 58.3333 56.875V13.125C58.3333 12.3196 57.6804 11.6667 56.875 11.6667ZM13.125 8.75C10.7088 8.75 8.75 10.7088 8.75 13.125V56.875C8.75 59.2913 10.7088 61.25 13.125 61.25H56.875C59.2913 61.25 61.25 59.2913 61.25 56.875V13.125C61.25 10.7088 59.2913 8.75 56.875 8.75H13.125Z" fill="#E9F7F8" fill-opacity="0.85"/>
<path fill-rule="evenodd" clip-rule="evenodd" d="M55.4163 35.5833C55.4163 35.5833 44.1872 23.3333 35.0533 23.3333C25.9197 23.3333 14.583 35.5833 14.583 35.5833C14.583 35.5833 25.9197 47.8333 35.0533 47.8333C44.1872 47.8333 55.4163 35.5833 55.4163 35.5833ZM23.1729 31.7691C21.3978 33.1363 19.8549 34.51 18.7174 35.5833C19.8549 36.6567 21.3978 38.0304 23.1729 39.3976C25.0671 40.8568 27.1703 42.2656 29.2834 43.2994C31.4221 44.3457 33.3865 44.9167 35.0533 44.9167C36.7192 44.9167 38.6757 44.3465 40.8021 43.3016C42.9035 42.2689 44.9925 40.8616 46.8727 39.4036C48.639 38.0336 50.1723 36.6573 51.3005 35.5833C50.1723 34.5094 48.639 33.133 46.8727 31.7631C44.9925 30.3051 42.9035 28.8978 40.8021 27.8651C38.6757 26.8202 36.7192 26.25 35.0533 26.25C33.3865 26.25 31.4221 26.8209 29.2834 27.8673C27.1703 28.9011 25.0671 30.3099 23.1729 31.7691Z" fill="#E9F7F8" fill-opacity="0.85"/>
<path fill-rule="evenodd" clip-rule="evenodd" d="M34.9997 43.8958C39.5905 43.8958 43.3122 40.1742 43.3122 35.5833C43.3122 30.9925 39.5905 27.2708 34.9997 27.2708C30.4088 27.2708 26.6872 30.9925 26.6872 35.5833C26.6872 40.1742 30.4088 43.8958 34.9997 43.8958ZM34.9997 46.8125C41.2014 46.8125 46.2288 41.785 46.2288 35.5833C46.2288 29.3816 41.2014 24.3542 34.9997 24.3542C28.798 24.3542 23.7705 29.3816 23.7705 35.5833C23.7705 41.785 28.798 46.8125 34.9997 46.8125Z" fill="#E9F7F8" fill-opacity="0.85"/>
<path fill-rule="evenodd" clip-rule="evenodd" d="M34.9997 40.6875C37.8186 40.6875 40.1038 38.4023 40.1038 35.5833C40.1038 34.3157 39.6418 33.1561 38.8769 32.2636C39.0079 32.4893 39.083 32.7515 39.083 33.0314C39.083 33.8771 38.3974 34.5626 37.5518 34.5626C36.7061 34.5626 36.0205 33.8771 36.0205 33.0314C36.0205 32.1857 36.7061 31.5001 37.5518 31.5001C37.8316 31.5001 38.0938 31.5752 38.3196 31.7063C37.4271 30.9413 36.2674 30.4792 34.9997 30.4792C32.1807 30.4792 29.8955 32.7644 29.8955 35.5833C29.8955 38.4023 32.1807 40.6875 34.9997 40.6875Z" fill="#E9F7F8" fill-opacity="0.85"/>
</svg>
