<svg width="168" height="169" viewBox="0 0 168 169" fill="none" xmlns="http://www.w3.org/2000/svg">
<circle cx="156" cy="84" r="5" fill="#1CB5BD"/>
<path d="M49.5615 25.3459L44.7965 16.0298L46.4489 15.1846L48.3651 18.931L52.14 17.0002L50.2238 13.2538L51.8762 12.4087L56.6412 21.7248L54.9888 22.57L52.8759 18.439L49.101 20.3697L51.2139 24.5007L49.5615 25.3459Z" fill="black" fill-opacity="0.25"/>
<path d="M65.4541 18.9217C64.5825 19.1715 63.7533 19.1817 62.9663 18.9524C62.1763 18.7127 61.48 18.2576 60.8773 17.5871C60.2818 16.9033 59.8283 16.018 59.5168 14.9311C59.2053 13.8442 59.1239 12.8633 59.2726 11.9885C59.4316 11.1107 59.7855 10.3712 60.3345 9.77007C60.8834 9.16889 61.5937 8.74339 62.4653 8.49359C63.3471 8.24084 64.18 8.22403 64.9641 8.44315C65.7481 8.66228 66.4349 9.10346 67.0245 9.76669C67.6243 10.427 68.08 11.3006 68.3915 12.3875C68.703 13.4744 68.7822 14.467 68.6291 15.3653C68.4834 16.2504 68.1389 17.0038 67.5959 17.6254C67.0499 18.2369 66.336 18.669 65.4541 18.9217ZM65.0089 17.3683C65.7984 17.142 66.3335 16.628 66.6142 15.8263C66.8919 15.0143 66.8691 14.0444 66.5458 12.9165C66.2225 11.7886 65.7339 10.9743 65.0801 10.4738C64.4232 9.963 63.7 9.82074 62.9105 10.047C62.121 10.2733 61.5829 10.7771 61.2964 11.5582C61.0069 12.3292 61.0238 13.2786 61.3471 14.4065C61.6704 15.5344 62.1649 16.3692 62.8305 16.9107C63.4932 17.442 64.2193 17.5946 65.0089 17.3683Z" fill="black" fill-opacity="0.25"/>
<path d="M75.2605 16.6491L72.3994 6.37122L74.298 6.22801L75.6045 11.4245C75.7313 11.9711 75.8585 12.5231 75.9861 13.0804C76.1236 13.6263 76.2504 14.173 76.3666 14.7205L76.4304 14.7157C76.5057 14.1537 76.5756 13.5922 76.6403 13.0311C76.7148 12.4586 76.7896 11.8913 76.8649 11.3294L77.7442 5.96808L79.3556 5.84653L81.0291 11.0153C81.187 11.5489 81.3457 12.0932 81.5053 12.6481C81.664 13.1924 81.8231 13.742 81.9826 14.2969L82.0464 14.2921C82.089 13.7219 82.132 13.1571 82.1754 12.5976C82.2187 12.0381 82.2568 11.4789 82.2895 10.9202L82.8018 5.5866L84.5728 5.45302L83.3655 16.0378L81.068 16.2111L79.3617 10.8202C79.2461 10.4224 79.1305 10.0246 79.015 9.62686C78.91 9.22829 78.8108 8.83464 78.7173 8.4459L78.6535 8.45072C78.6087 8.84988 78.559 9.25477 78.5044 9.66537C78.4604 10.0752 78.4112 10.4854 78.3566 10.896L77.5101 16.4795L75.2605 16.6491Z" fill="black" fill-opacity="0.25"/>
<path d="M96.6192 17.3357L97.0934 6.6775L98.9425 7.13135L98.5697 12.4765C98.5203 13.0356 98.4697 13.5998 98.4178 14.1691C98.3789 14.7307 98.3295 15.2897 98.2698 15.8462L98.332 15.8615C98.5781 15.3507 98.8191 14.8388 99.0549 14.3255C99.3036 13.8044 99.5511 13.2885 99.7972 12.7778L102.299 7.95514L103.868 8.34033L103.853 13.7732C103.837 14.3295 103.819 14.8962 103.798 15.4732C103.78 16.0398 103.76 16.6117 103.739 17.1887L103.802 17.2039C104.019 16.6752 104.236 16.1517 104.451 15.6334C104.666 15.115 104.876 14.5954 105.08 14.0745L107.225 9.16412L108.95 9.58746L104.513 19.2731L102.275 18.7239L102.329 13.0696C102.342 12.6557 102.356 12.2417 102.37 11.8277C102.394 11.4162 102.422 11.0112 102.454 10.6127L102.392 10.5974C102.225 10.9629 102.052 11.3323 101.873 11.7056C101.704 12.0815 101.529 12.4561 101.35 12.8294L98.8102 17.8734L96.6192 17.3357Z" fill="black" fill-opacity="0.25"/>
<path d="M109.595 21.2452L113.95 11.7305L119.682 14.3541L119.029 15.7799L114.985 13.9287L113.873 16.3583L117.292 17.9231L116.639 19.3489L113.22 17.7841L111.935 20.5919L116.125 22.5097L115.473 23.9354L109.595 21.2452Z" fill="black" fill-opacity="0.25"/>
<path d="M125.914 30.7585L131.248 21.5186L132.679 22.7737L129.885 27.3453C129.583 27.8187 129.278 28.2961 128.97 28.7774C128.676 29.2578 128.375 29.7312 128.065 30.1975L128.114 30.2397C128.567 29.8999 129.017 29.5566 129.463 29.2098C129.924 28.8621 130.381 28.5183 130.835 28.1785L135.278 25.0518L136.493 26.117L133.975 30.9313C133.705 31.4177 133.428 31.9121 133.143 32.4146C132.866 32.9091 132.585 33.4075 132.301 33.91L132.349 33.9522C132.786 33.5833 133.219 33.2184 133.649 32.8576C134.078 32.4967 134.504 32.1324 134.926 31.7645L139.092 28.3952L140.428 29.5659L132.026 36.1163L130.294 34.5975L132.947 29.6043C133.15 29.2433 133.353 28.8822 133.556 28.5212C133.767 28.1671 133.979 27.8206 134.191 27.4817L134.143 27.4395C133.826 27.687 133.503 27.9351 133.171 28.1837C132.848 28.4392 132.52 28.6913 132.189 28.9399L127.61 32.2456L125.914 30.7585Z" fill="black" fill-opacity="0.25"/>
<path d="M137.933 43.4967C137.386 42.7734 137.078 42.0034 137.009 41.1866C136.949 40.3633 137.123 39.5499 137.531 38.7462C137.955 37.9446 138.618 37.2029 139.52 36.5212C140.422 35.8394 141.308 35.4105 142.177 35.2345C143.054 35.067 143.871 35.1311 144.629 35.427C145.388 35.7228 146.04 36.2324 146.587 36.9557C147.14 37.6875 147.456 38.4586 147.533 39.269C147.611 40.0794 147.446 40.8789 147.04 41.6677C146.64 42.4649 145.988 43.2044 145.086 43.8861C144.184 44.5679 143.287 44.999 142.394 45.1794C141.515 45.3618 140.689 45.3116 139.913 45.0286C139.146 44.7392 138.486 44.2285 137.933 43.4967ZM139.222 42.5223C139.717 43.1776 140.389 43.4919 141.238 43.4652C142.096 43.4322 142.993 43.0619 143.929 42.3544C144.865 41.6469 145.449 40.8981 145.68 40.1079C145.921 39.3113 145.793 38.5853 145.298 37.9301C144.803 37.2749 144.139 36.9541 143.307 36.9679C142.484 36.9752 141.604 37.3326 140.668 38.0401C139.732 38.7476 139.131 39.5093 138.865 40.3252C138.608 41.1347 138.727 41.8671 139.222 42.5223Z" fill="black" fill-opacity="0.25"/>
<path d="M143.096 50.9834L152.455 46.3027L154.037 49.4652C154.361 50.114 154.567 50.7388 154.653 51.3399C154.743 51.9505 154.657 52.5062 154.395 53.0071C154.147 53.5128 153.675 53.9398 152.978 54.2881C152.263 54.646 151.6 54.7629 150.989 54.6389C150.383 54.5245 149.844 54.2336 149.372 53.7662L146.582 57.9524L145.652 56.0921L148.306 52.2422L147.59 50.8112L143.927 52.6433L143.096 50.9834ZM148.907 50.1527L149.572 51.4836C149.892 52.1227 150.269 52.5425 150.703 52.7428C151.151 52.9479 151.638 52.9192 152.163 52.6568C152.697 52.3896 152.983 52.0318 153.021 51.5834C153.074 51.1397 152.94 50.5983 152.62 49.9591L151.955 48.6283L148.907 50.1527Z" fill="black" fill-opacity="0.25"/>
<path d="M147.905 61.7039L157.931 58.7068L158.462 60.4851L153.909 61.8461L153.923 61.8921L159.544 64.1029L160.135 66.0804L155.305 64.1677L150.265 69.5987L149.679 67.6365L153.589 63.5117L151.365 62.6069L148.437 63.4822L147.905 61.7039Z" fill="black" fill-opacity="0.25"/>
<path d="M149.679 100.536L159.674 103.635L159.124 105.407L155.105 104.161L153.849 108.211L157.869 109.457L157.319 111.23L147.324 108.131L147.874 106.358L152.306 107.732L153.562 103.683L149.13 102.308L149.679 100.536Z" fill="black" fill-opacity="0.25"/>
<path d="M143.174 116.395C143.604 115.596 144.176 114.996 144.89 114.593C145.613 114.195 146.425 114.015 147.326 114.052C148.231 114.104 149.181 114.398 150.177 114.934C151.172 115.471 151.931 116.098 152.453 116.815C152.97 117.542 153.252 118.312 153.298 119.125C153.345 119.938 153.153 120.743 152.723 121.541C152.288 122.349 151.718 122.957 151.013 123.365C150.309 123.772 149.513 123.956 148.627 123.914C147.735 123.882 146.792 123.598 145.797 123.061C144.801 122.525 144.036 121.888 143.5 121.151C142.969 120.428 142.67 119.655 142.605 118.833C142.549 118.015 142.738 117.202 143.174 116.395ZM144.596 117.161C144.206 117.884 144.2 118.626 144.578 119.387C144.965 120.153 145.675 120.814 146.708 121.371C147.74 121.928 148.664 122.147 149.479 122.029C150.304 121.916 150.911 121.498 151.3 120.775C151.69 120.052 151.705 119.315 151.347 118.564C150.997 117.818 150.306 117.167 149.273 116.61C148.241 116.054 147.298 115.824 146.445 115.922C145.602 116.025 144.986 116.438 144.596 117.161Z" fill="black" fill-opacity="0.25"/>
<path d="M137.948 124.999L147.301 130.132L146.077 131.59L141.446 128.895C140.966 128.604 140.482 128.309 139.995 128.011C139.508 127.728 139.028 127.437 138.555 127.137L138.514 127.186C138.864 127.633 139.217 128.075 139.573 128.514C139.931 128.967 140.284 129.417 140.634 129.863L143.855 134.238L142.816 135.476L137.949 133.062C137.457 132.802 136.957 132.535 136.448 132.262C135.948 131.995 135.443 131.725 134.935 131.452L134.894 131.501C135.272 131.929 135.646 132.355 136.016 132.777C136.386 133.199 136.76 133.616 137.137 134.03L140.595 138.123L139.453 139.483L132.723 131.225L134.204 129.46L139.254 132.005C139.619 132.2 139.984 132.396 140.35 132.591C140.708 132.794 141.059 132.998 141.403 133.203L141.444 133.154C141.189 132.843 140.934 132.525 140.679 132.199C140.416 131.881 140.157 131.559 139.902 131.233L136.498 126.727L137.948 124.999Z" fill="black" fill-opacity="0.25"/>
<path d="M122.536 139.801L129.83 147.586L128.214 148.592L124.65 144.591C124.284 144.165 123.916 143.735 123.545 143.3C123.17 142.88 122.805 142.454 122.448 142.022L122.394 142.056C122.587 142.589 122.785 143.119 122.988 143.646C123.187 144.188 123.383 144.726 123.576 145.259L125.279 150.418L123.907 151.272L120.031 147.465C119.644 147.065 119.251 146.656 118.853 146.238C118.46 145.829 118.065 145.416 117.666 144.998L117.612 145.032C117.838 145.557 118.062 146.077 118.282 146.593C118.503 147.109 118.728 147.623 118.958 148.133L120.973 153.098L119.465 154.036L115.635 144.095L117.591 142.878L121.599 146.866C121.886 147.165 122.172 147.464 122.459 147.763C122.736 148.068 123.007 148.371 123.27 148.672L123.324 148.638C123.179 148.264 123.035 147.882 122.894 147.493C122.743 147.109 122.597 146.723 122.455 146.333L120.62 140.993L122.536 139.801Z" fill="black" fill-opacity="0.25"/>
<path d="M110.673 146.354L114.438 156.117L108.557 158.385L107.992 156.922L112.142 155.322L111.181 152.829L107.673 154.182L107.109 152.719L110.617 151.366L109.506 148.485L105.206 150.143L104.642 148.68L110.673 146.354Z" fill="black" fill-opacity="0.25"/>
<path d="M92.4656 151.384L95.3506 161.655L93.4523 161.803L92.1337 156.61C92.0056 156.063 91.8772 155.511 91.7483 154.954C91.6095 154.409 91.4815 153.862 91.364 153.315L91.3002 153.32C91.2262 153.882 91.1576 154.444 91.0942 155.005C91.0211 155.578 90.9475 156.145 90.8735 156.708L90.0067 162.071L88.3956 162.196L86.7101 157.031C86.5509 156.498 86.391 155.954 86.2302 155.4C86.0702 154.856 85.9098 154.306 85.749 153.752L85.6852 153.757C85.6439 154.327 85.6023 154.892 85.5602 155.452C85.5181 156.011 85.4813 156.57 85.4499 157.129L84.95 162.464L83.1793 162.602L84.3621 152.014L86.6591 151.836L88.3779 157.223C88.4944 157.62 88.6109 158.018 88.7274 158.415C88.8333 158.813 88.9334 159.207 89.0278 159.595L89.0917 159.59C89.1355 159.191 89.1843 158.786 89.2379 158.375C89.2809 157.965 89.3293 157.555 89.3829 157.144L90.2164 151.559L92.4656 151.384Z" fill="black" fill-opacity="0.25"/>
<path d="M74.9548 151.084C75.8542 151.198 76.6203 151.516 77.2531 152.037C77.8845 152.569 78.3449 153.262 78.6344 154.116C78.9119 154.979 78.9795 155.971 78.8371 157.093C78.6948 158.214 78.3828 159.148 77.9011 159.893C77.4088 160.637 76.7919 161.177 76.0504 161.513C75.3089 161.849 74.4884 161.96 73.5889 161.846C72.6789 161.73 71.9068 161.417 71.2727 160.907C70.6386 160.396 70.1815 159.72 69.9013 158.878C69.6105 158.035 69.5362 157.052 69.6786 155.93C69.821 154.809 70.1396 153.865 70.6346 153.1C71.1176 152.344 71.7312 151.788 72.4754 151.431C73.2183 151.084 74.0448 150.969 74.9548 151.084ZM74.7513 152.687C73.9365 152.584 73.2421 152.845 72.668 153.471C72.0926 154.108 71.7311 155.008 71.5833 156.172C71.4356 157.336 71.5635 158.277 71.967 158.995C72.3691 159.723 72.9776 160.139 73.7924 160.243C74.6072 160.346 75.3003 160.095 75.8716 159.49C76.4417 158.896 76.8006 158.017 76.9483 156.853C77.096 155.689 76.9708 154.727 76.5727 153.967C76.1733 153.217 75.5661 152.791 74.7513 152.687Z" fill="black" fill-opacity="0.25"/>
<path d="M65.9906 149.548L62.8014 159.515L59.4336 158.437C58.7428 158.216 58.1523 157.926 57.6622 157.568C57.162 157.206 56.8243 156.756 56.6492 156.219C56.4606 155.688 56.485 155.052 56.7223 154.31C56.9662 153.548 57.3457 152.992 57.861 152.642C58.3661 152.288 58.9509 152.106 59.6153 152.094L58.5693 147.174L60.5504 147.807L61.4506 152.396L62.9745 152.884L64.2229 148.983L65.9906 149.548ZM62.5259 154.286L61.1087 153.832C60.428 153.614 59.8644 153.591 59.4178 153.762C58.9578 153.939 58.6384 154.307 58.4596 154.866C58.2775 155.435 58.3336 155.89 58.6278 156.23C58.9086 156.578 59.3893 156.86 60.07 157.078L61.4872 157.532L62.5259 154.286Z" fill="black" fill-opacity="0.25"/>
<path d="M54.9612 145.5L50.1015 154.767L48.4578 153.905L50.6647 149.696L50.6222 149.674L45.1137 152.151L43.2858 151.192L48.0288 149.073L47.6637 141.673L49.4775 142.624L49.6969 148.303L51.8982 147.344L53.3175 144.638L54.9612 145.5Z" fill="black" fill-opacity="0.25"/>
<path d="M30.3825 86.4769L4.93176 99.6021C2.77186 100.715 0 99.3675 0 97.1243V70.8737C0 68.634 2.76786 67.2831 4.93176 68.3994L30.3825 81.5247C30.8738 81.774 31.2822 82.1343 31.5663 82.5692C31.8504 83.004 32 83.4979 32 84.0008C32 84.5036 31.8504 84.9975 31.5663 85.4324C31.2822 85.8672 30.8738 86.2276 30.3825 86.4769Z" fill="#1CB5BD"/>
<path d="M49.44 89V80.104H46.416V78.536H54.32V80.104H51.296V89H49.44ZM57.5658 83.432L57.1978 84.712H59.8698L59.5018 83.432C59.3311 82.8773 59.1658 82.3067 59.0058 81.72C58.8564 81.1333 58.7071 80.552 58.5578 79.976H58.4938C58.3551 80.5627 58.2058 81.1493 58.0458 81.736C57.8964 82.312 57.7364 82.8773 57.5658 83.432ZM54.0617 89L57.4698 78.536H59.6458L63.0538 89H61.1018L60.2858 86.168H56.7658L55.9498 89H54.0617ZM64.3436 89V78.536H66.1996V83.288H66.2476L69.9756 78.536H72.0396L68.8236 82.616L72.5836 89H70.5356L67.7036 84.072L66.1996 85.944V89H64.3436ZM73.8905 89V78.536H80.1945V80.104H75.7465V82.776H79.5065V84.344H75.7465V87.432H80.3545V89H73.8905ZM87.847 83.432L87.479 84.712H90.151L89.783 83.432C89.6123 82.8773 89.447 82.3067 89.287 81.72C89.1377 81.1333 88.9883 80.552 88.839 79.976H88.775C88.6363 80.5627 88.487 81.1493 88.327 81.736C88.1777 82.312 88.0177 82.8773 87.847 83.432ZM84.343 89L87.751 78.536H89.927L93.335 89H91.383L90.567 86.168H87.047L86.231 89H84.343ZM99.94 89V80.104H96.916V78.536H104.82V80.104H101.796V89H99.94ZM110.205 89.192C109.298 89.192 108.498 88.9733 107.805 88.536C107.111 88.088 106.567 87.4587 106.173 86.648C105.789 85.8267 105.597 84.8507 105.597 83.72C105.597 82.5893 105.789 81.624 106.173 80.824C106.567 80.024 107.111 79.4107 107.805 78.984C108.498 78.5573 109.298 78.344 110.205 78.344C111.122 78.344 111.927 78.5573 112.621 78.984C113.314 79.4107 113.853 80.024 114.237 80.824C114.631 81.624 114.829 82.5893 114.829 83.72C114.829 84.8507 114.631 85.8267 114.237 86.648C113.853 87.4587 113.314 88.088 112.621 88.536C111.927 88.9733 111.122 89.192 110.205 89.192ZM110.205 87.576C111.026 87.576 111.682 87.2293 112.173 86.536C112.663 85.832 112.909 84.8933 112.909 83.72C112.909 82.5467 112.663 81.6293 112.173 80.968C111.682 80.296 111.026 79.96 110.205 79.96C109.383 79.96 108.727 80.296 108.237 80.968C107.746 81.6293 107.501 82.5467 107.501 83.72C107.501 84.8933 107.746 85.832 108.237 86.536C108.727 87.2293 109.383 87.576 110.205 87.576ZM120.842 89.192C120.042 89.192 119.343 89.032 118.746 88.712C118.148 88.392 117.684 87.88 117.354 87.176C117.034 86.472 116.874 85.5493 116.874 84.408V78.536H118.73V84.552C118.73 85.3093 118.815 85.912 118.986 86.36C119.167 86.7973 119.418 87.112 119.738 87.304C120.058 87.4853 120.426 87.576 120.842 87.576C121.268 87.576 121.642 87.4853 121.962 87.304C122.292 87.112 122.548 86.7973 122.73 86.36C122.922 85.912 123.018 85.3093 123.018 84.552V78.536H124.794V84.408C124.794 85.5493 124.634 86.472 124.314 87.176C123.994 87.88 123.535 88.392 122.938 88.712C122.351 89.032 121.652 89.192 120.842 89.192ZM127.406 89V78.536H130.942C131.667 78.536 132.318 78.632 132.894 78.824C133.481 79.016 133.939 79.3413 134.27 79.8C134.611 80.248 134.782 80.8613 134.782 81.64C134.782 82.44 134.59 83.0853 134.206 83.576C133.833 84.0667 133.331 84.4187 132.702 84.632L135.198 89H133.118L130.862 84.904H129.262V89H127.406ZM129.262 83.432H130.75C131.465 83.432 132.009 83.2827 132.382 82.984C132.766 82.6747 132.958 82.2267 132.958 81.64C132.958 81.0427 132.766 80.6267 132.382 80.392C132.009 80.1467 131.465 80.024 130.75 80.024H129.262V83.432Z" fill="#1CB5BD"/>
</svg>
