<svg width="70" height="70" viewBox="0 0 70 70" fill="none" xmlns="http://www.w3.org/2000/svg">
<path d="M11.6667 27.7586C11.6667 23.8939 12.9567 20.1921 15.0859 17.4826C17.2079 14.7821 20.1058 13.125 23.3788 13.125C27.9036 13.125 31.4132 16.0717 33.691 20.7109L35 23.3772L36.309 20.7109C38.5866 16.072 42.0962 13.125 46.6212 13.125C49.8945 13.125 52.7924 14.7824 54.9144 17.4831C57.0434 20.1926 58.3333 23.8945 58.3333 27.7586C58.3333 28.3345 58.3053 28.9056 58.2512 29.4716C59.2032 30.2126 60.0655 31.0635 60.8188 32.0054C61.0982 30.6283 61.25 29.2116 61.25 27.7586C61.25 23.2745 59.7609 18.9305 57.2078 15.681C54.6477 12.4228 50.9603 10.2083 46.6212 10.2083C41.5116 10.2083 37.6262 13.0718 35 17.1118C32.3737 13.0716 28.4883 10.2083 23.3788 10.2083C19.0401 10.2083 15.3528 12.4224 12.7925 15.6806C10.2393 18.9297 8.75 23.2738 8.75 27.7586C8.75 37.7346 15.364 45.7495 21.6549 51.143C24.8303 53.8653 27.9985 55.9852 30.3698 57.424C31.557 58.1443 32.5485 58.6963 33.2466 59.0699C33.5958 59.2567 33.8718 59.3991 34.0627 59.4957C34.1581 59.544 34.2322 59.5809 34.2835 59.6063L34.3432 59.6355L34.3598 59.6436L34.3664 59.6468L35.0203 59.9615L35.6676 59.6299L35.6724 59.6273L35.6889 59.6188L35.748 59.5881C35.799 59.5614 35.8728 59.5224 35.9678 59.4714C36.1579 59.3695 36.4333 59.2192 36.7816 59.0228C37.4781 58.6301 38.4679 58.0514 39.6532 57.3015C40.4887 56.7732 41.4232 56.1585 42.422 55.4626C41.4431 55.0088 40.5199 54.4546 39.6661 53.8132C39.1122 54.1842 38.5856 54.5257 38.0941 54.8367C36.9552 55.5571 36.0081 56.1105 35.349 56.4823C35.2138 56.5585 35.0909 56.6271 34.9807 56.6877C34.8734 56.6316 34.7538 56.5684 34.6227 56.4983C33.9652 56.1462 33.0197 55.6202 31.8828 54.9304C29.6056 53.5488 26.5759 51.5201 23.5534 48.9287C17.4485 43.6947 11.6667 36.4223 11.6667 27.7586Z" fill="#E9F7F8" fill-opacity="0.85"/>
<path d="M49.5835 45.2084C51.1944 45.2084 52.5002 43.9026 52.5002 42.2917C52.5002 40.6808 51.1944 39.375 49.5835 39.375C49.2375 39.375 48.9056 39.4353 48.5977 39.5458L45.2451 36.1932L43.1826 38.2556L46.7109 41.7839C46.682 41.9488 46.6669 42.1184 46.6669 42.2917C46.6669 43.9026 47.9727 45.2084 49.5835 45.2084Z" fill="#E9F7F8" fill-opacity="0.85"/>
<path fill-rule="evenodd" clip-rule="evenodd" d="M48.8538 53.9584C55.6998 53.9584 61.2497 48.4085 61.2497 41.5625C61.2497 34.7165 55.6998 29.1667 48.8538 29.1667C42.0078 29.1667 36.458 34.7165 36.458 41.5625C36.458 48.4085 42.0078 53.9584 48.8538 53.9584ZM48.8538 51.0417C54.0891 51.0417 58.333 46.7978 58.333 41.5625C58.333 36.3272 54.0891 32.0834 48.8538 32.0834C43.6186 32.0834 39.3747 36.3272 39.3747 41.5625C39.3747 46.7978 43.6186 51.0417 48.8538 51.0417Z" fill="#E9F7F8" fill-opacity="0.85"/>
</svg>
