<svg width="70" height="70" viewBox="0 0 70 70" fill="none" xmlns="http://www.w3.org/2000/svg">
<path fill-rule="evenodd" clip-rule="evenodd" d="M56.875 11.6667H13.125C12.3196 11.6667 11.6667 12.3196 11.6667 13.125V56.875C11.6667 57.6804 12.3196 58.3333 13.125 58.3333H56.875C57.6804 58.3333 58.3333 57.6804 58.3333 56.875V13.125C58.3333 12.3196 57.6804 11.6667 56.875 11.6667ZM13.125 8.75C10.7088 8.75 8.75 10.7088 8.75 13.125V56.875C8.75 59.2913 10.7088 61.25 13.125 61.25H56.875C59.2913 61.25 61.25 59.2913 61.25 56.875V13.125C61.25 10.7088 59.2913 8.75 56.875 8.75H13.125Z" fill="#E9F7F8" fill-opacity="0.85"/>
<path fill-rule="evenodd" clip-rule="evenodd" d="M25.2497 9.98242C25.2497 10.216 25.2507 15.4538 25.2528 15.6632C25.3019 20.9244 25.983 23.5035 27.3205 24.8818C28.4954 26.0925 30.4759 26.6784 34.1953 26.7884C34.4897 23.8195 35.6737 21.4506 37.4137 19.7629C39.4161 17.8205 42.0679 16.8659 44.6926 16.8659C47.3175 16.8659 49.9692 17.8205 51.9718 19.7629C53.9914 21.7219 55.2619 24.5987 55.2619 28.266V40.4171C55.2619 43.8511 54.6917 47.4843 52.9252 50.3046C51.0927 53.2302 48.0612 55.1313 43.578 55.1313C38.9649 55.1313 35.7625 52.3857 32.9329 49.9443L32.8428 49.8664C29.9619 47.3805 27.3714 45.145 23.698 44.6377C22.1554 44.6537 21.0832 45.0673 20.3127 45.6317C19.5128 46.2176 18.9386 47.0396 18.5325 47.9901C17.7023 49.9332 17.6748 52.1722 17.7149 53.1342C17.723 53.325 17.727 55.3919 17.73 57.3342C17.7313 58.3225 17.7324 59.3012 17.733 60.0327L17.734 61.2477L14.8174 61.2509L14.8164 60.0355C14.8158 59.3041 14.8146 58.326 14.8133 57.3384C14.8118 56.3507 14.8099 55.3542 14.8077 54.586C14.8066 54.2016 14.8054 53.8755 14.804 53.6365C14.8034 53.5167 14.8026 53.4203 14.8019 53.3501C14.8015 53.3025 14.801 53.2754 14.8009 53.2626C14.8007 53.2532 14.8007 53.2516 14.8009 53.2557C14.7554 52.165 14.7599 49.3959 15.8505 46.844C16.4046 45.5471 17.2631 44.25 18.5892 43.2787C19.9294 42.2971 21.6494 41.7204 23.7914 41.7204C24.3671 41.7204 24.8996 41.7334 25.4056 41.7457C26.3271 41.768 27.1613 41.7882 28.0118 41.7245C29.2533 41.6315 30.229 41.364 31.0227 40.7692C32.5196 39.6471 33.9415 36.8976 34.1075 29.7048C30.2461 29.5945 27.2342 28.9809 25.2274 26.9131C22.9963 24.614 22.3848 20.8986 22.3362 15.6905C22.3341 15.4628 22.333 10.2006 22.333 9.98242H25.2497ZM30.4465 44.2517C31.9623 45.25 33.2985 46.405 34.5422 47.4801C34.6415 47.5659 34.7401 47.6513 34.8384 47.7359C37.7701 50.2655 40.1949 52.2146 43.578 52.2146C47.0909 52.2146 49.1721 50.8018 50.4534 48.7563C51.8006 46.6057 52.3453 43.6112 52.3453 40.4171V28.266C52.3453 25.3056 51.338 23.2114 49.941 21.8565C48.527 20.4849 46.6233 19.7826 44.6926 19.7826C42.7621 19.7826 40.8584 20.4849 39.4444 21.8565C38.0475 23.2114 37.0402 25.3056 37.0402 28.266C37.0402 36.5635 35.6005 40.9829 32.7719 43.1029C32.0347 43.6556 31.247 44.0166 30.4465 44.2517Z" fill="#E9F7F8" fill-opacity="0.85"/>
<path d="M53.804 36.5509C47.1761 42.2908 43.3098 30.8111 35.025 36.5509L32.8156 40.9695L27.2925 43.7312C27.2925 43.7312 37.7866 53.6729 43.8622 53.6729C49.9378 53.6729 54.9086 48.1498 53.804 36.5509Z" fill="#E9F7F8" fill-opacity="0.85"/>
</svg>
