<svg width="32" height="32" viewBox="0 0 32 32" fill="none" xmlns="http://www.w3.org/2000/svg">
<path d="M24 26.6667L29.0987 21.568C29.2487 21.4181 29.3331 21.2148 29.3333 21.0027V14C29.3333 13.4696 29.1226 12.9609 28.7475 12.5858C28.3725 12.2107 27.8638 12 27.3333 12V12C26.8029 12 26.2942 12.2107 25.9191 12.5858C25.544 12.9609 25.3333 13.4696 25.3333 14V20" stroke="black" stroke-width="1.5" stroke-linecap="round" stroke-linejoin="round"/>
<path d="M24.0003 21.3333L25.1443 20.1893C25.2044 20.1293 25.2521 20.058 25.2846 19.9795C25.3171 19.9011 25.3337 19.8169 25.3337 19.732C25.3335 19.6121 25.3 19.4946 25.2369 19.3927C25.1738 19.2907 25.0836 19.2083 24.9763 19.1547L24.3857 18.86C23.8852 18.6098 23.3188 18.5233 22.7665 18.6128C22.2143 18.7023 21.7041 18.9632 21.3083 19.3587L20.115 20.552C19.6149 21.052 19.3338 21.7301 19.3337 22.4373V26.6667M8.00033 26.6667L2.90166 21.568C2.75159 21.4181 2.66718 21.2148 2.66699 21.0027V14C2.66699 13.4696 2.87771 12.9609 3.25278 12.5858C3.62785 12.2107 4.13656 12 4.66699 12V12C5.19743 12 5.70613 12.2107 6.08121 12.5858C6.45628 12.9609 6.66699 13.4696 6.66699 14V20" stroke="black" stroke-width="1.5" stroke-linecap="round" stroke-linejoin="round"/>
<path d="M8.00033 21.3334L6.85633 20.1894C6.79628 20.1293 6.74866 20.058 6.71617 19.9795C6.68368 19.9011 6.66697 19.817 6.66699 19.732V19.732C6.66699 19.488 6.80566 19.2654 7.02433 19.1547L7.61499 18.86C8.11541 18.6098 8.68184 18.5234 9.23412 18.6129C9.78639 18.7023 10.2965 18.9633 10.6923 19.3587L11.8857 20.552C12.3858 21.052 12.6668 21.7302 12.667 22.4374V26.6667M18.223 16H13.7777V12.8894H10.667V8.44404H13.7777V5.33337H18.223V8.44404H21.3337V12.8894H18.223V16V16Z" stroke="black" stroke-width="1.5" stroke-linecap="round" stroke-linejoin="round"/>
</svg>
