<svg width="70" height="70" viewBox="0 0 70 70" fill="none" xmlns="http://www.w3.org/2000/svg">
<path fill-rule="evenodd" clip-rule="evenodd" d="M37.6631 16.0417C37.6631 20.8741 33.7456 24.7917 28.9131 24.7917C24.0806 24.7917 20.1631 20.8741 20.1631 16.0417C20.1631 11.2092 24.0806 7.29166 28.9131 7.29166C33.7456 7.29166 37.6631 11.2092 37.6631 16.0417ZM34.7464 16.0417C34.7464 19.2633 32.1347 21.875 28.9131 21.875C25.6913 21.875 23.0798 19.2633 23.0798 16.0417C23.0798 12.82 25.6913 10.2083 28.9131 10.2083C32.1347 10.2083 34.7464 12.82 34.7464 16.0417Z" fill="#E9F7F8" fill-opacity="0.85"/>
<path fill-rule="evenodd" clip-rule="evenodd" d="M45.6842 26.2427C46.1704 25.2704 46.7051 22.8885 44.9551 21.1385C43.2051 19.3885 41.3092 19.6876 39.8509 20.4094C39.1777 20.7426 38.5044 21.5615 37.7036 22.5353C35.9026 24.7259 33.4562 27.701 28.9134 27.701C24.3707 27.701 21.9243 24.7259 20.1231 22.5353C19.3224 21.5615 18.6492 20.7426 17.9759 20.4094C16.5176 19.6876 14.6217 19.3885 12.8717 21.1385C11.1217 22.8885 11.6565 25.2704 12.1426 26.2427C14.2556 30.7705 16.8722 33.5697 20.1634 35V42.2917C20.1634 42.5692 20.199 42.8819 20.2735 43.2164C17.5221 45.673 15.7885 49.2819 15.7885 53.296C15.7885 54.7576 16.0618 56.9489 16.8503 58.8309C17.6189 60.6652 19.1221 62.7085 21.7839 62.7085C24.4098 62.7085 26.4829 60.5407 26.4829 57.9359C26.4829 56.8091 26.0543 55.8308 25.7533 55.1441L25.7129 55.0518C25.3718 54.2706 25.1866 53.7937 25.1866 53.296C25.1866 52.8001 25.4477 52.0243 25.975 51.1677C26.4587 50.3819 27.0448 49.7257 27.5014 49.3669C27.9672 49.4985 28.4438 49.5833 28.9134 49.5833C29.3831 49.5833 29.8597 49.4985 30.3255 49.3669C30.7821 49.7257 31.3682 50.3818 31.8519 51.1677C32.3794 52.0243 32.6403 52.8001 32.6403 53.296C32.6403 53.781 32.4544 54.2672 32.1115 55.0616L32.0685 55.161C31.7703 55.8495 31.344 56.8329 31.344 57.9359C31.344 60.5407 33.4173 62.7085 36.0432 62.7085C38.6953 62.7085 40.1844 60.536 40.94 58.7278C41.7326 56.8312 42.0385 54.647 42.0385 53.296C42.0385 49.2819 40.3049 45.6728 37.5533 43.2163C37.6278 42.8819 37.6634 42.5692 37.6634 42.2917V35C40.9547 33.5697 43.5712 30.7705 45.6842 26.2427ZM14.7689 24.9735L14.7856 25.0093C16.7007 29.113 18.8811 31.2626 21.326 32.325L23.0801 33.0874V37.9167H34.7467V33.0874L36.501 32.325C38.9457 31.2626 41.1261 29.113 43.0413 25.0093L43.0579 24.9735L43.0756 24.9382C43.1272 24.8351 43.2532 24.4676 43.2425 24.058C43.2336 23.7167 43.1403 23.4485 42.8927 23.2009C42.6738 22.982 42.5051 22.8807 42.3989 22.8315C42.2952 22.7835 42.2052 22.7637 42.1148 22.7582C41.9149 22.7459 41.5967 22.8008 41.1508 23.0204C41.1541 23.0189 41.1567 23.0175 41.159 23.0164C41.164 23.0141 41.1669 23.0131 41.1673 23.0138C41.1683 23.0151 41.1589 23.0242 41.1373 23.0449C41.0606 23.1182 40.8309 23.3377 40.3776 23.8786C40.2651 24.0131 40.1399 24.1655 40.0037 24.3311C39.4974 24.9476 38.8395 25.7482 38.114 26.4944C36.1685 28.4957 33.2748 30.6177 28.9134 30.6177C24.5521 30.6177 21.6583 28.4957 19.7128 26.4944C18.9874 25.7482 18.3295 24.9476 17.8232 24.3313C17.6871 24.1657 17.5617 24.0129 17.4491 23.8786C16.9959 23.3377 16.7662 23.1182 16.6895 23.0449C16.6854 23.0409 16.6818 23.0374 16.6786 23.0344C16.6647 23.0211 16.6586 23.0148 16.6595 23.0138C16.6602 23.0128 16.665 23.015 16.6737 23.0194C16.2292 22.8006 15.9116 22.7459 15.712 22.7582C15.6217 22.7637 15.5316 22.7835 15.4279 22.8315C15.3217 22.8807 15.153 22.982 14.9341 23.2009C14.6865 23.4485 14.5931 23.7167 14.5842 24.058C14.5736 24.4676 14.6997 24.8351 14.7514 24.9382L14.7689 24.9735ZM23.6249 43.7379C23.1792 43.0477 23.0801 42.4651 23.0801 42.2917V40.8333H34.7467V42.2917C34.7467 42.4651 34.6476 43.0477 34.2019 43.7379C33.7874 44.3797 33.1306 45.0214 32.144 45.4422C31.8661 45.5608 31.5537 45.7094 31.2889 45.8354L31.1378 45.9072C30.8139 46.0606 30.5135 46.1993 30.2142 46.3207C29.5791 46.5784 29.1629 46.6667 28.9134 46.6667C28.6639 46.6667 28.2477 46.5784 27.6127 46.3207C27.3133 46.1993 27.013 46.0606 26.689 45.9072L26.5382 45.8356C26.2734 45.7096 25.9607 45.5608 25.6827 45.4422C24.6962 45.0214 24.0393 44.3797 23.6249 43.7379ZM18.7052 53.296C18.7052 50.4312 19.8246 47.8414 21.6343 45.9535C22.3245 46.8043 23.2782 47.5875 24.5384 48.125L24.5881 48.1464C24.1891 48.6035 23.8143 49.1139 23.4913 49.6386C22.8492 50.6816 22.27 52.0104 22.27 53.296C22.27 54.4584 22.705 55.4528 23.0112 56.1533L23.04 56.2189C23.3869 57.0132 23.5663 57.469 23.5663 57.9359C23.5663 58.9919 22.7376 59.7918 21.7839 59.7918C20.9257 59.7918 20.1605 59.1837 19.5404 57.7039C18.9404 56.2717 18.7052 54.486 18.7052 53.296ZM34.3358 49.6386C34.0127 49.1139 33.6378 48.6035 33.2388 48.1463L33.2884 48.125C34.5487 47.5875 35.5024 46.8042 36.1927 45.9534C38.0023 47.8414 39.1219 50.4312 39.1219 53.296C39.1219 54.3248 38.8697 56.1175 38.2489 57.6031C37.5912 59.177 36.8117 59.7918 36.0432 59.7918C35.0894 59.7918 34.2607 58.9919 34.2607 57.9359C34.2607 57.4881 34.4397 57.0278 34.7895 56.2174L34.8183 56.1505C35.1231 55.4458 35.557 54.4421 35.557 53.296C35.557 52.0104 34.9779 50.6816 34.3358 49.6386Z" fill="#E9F7F8" fill-opacity="0.85"/>
<path fill-rule="evenodd" clip-rule="evenodd" d="M52.1077 55.125L49.7744 56.875V43.75C49.7744 42.3359 50.4452 41.0785 51.4862 40.2787C50.4579 39.634 49.7744 38.4907 49.7744 37.1875V16.7708C49.7744 14.7573 51.4066 13.125 53.4202 13.125C55.4338 13.125 57.0661 14.7573 57.0661 16.7708V37.1875C57.0661 38.2037 56.6503 39.1229 55.9796 39.7839C57.4969 40.4908 58.5841 42.0508 58.2833 43.9667C57.7047 47.6547 56.1844 50.4258 54.8062 52.2753C54.1173 53.1999 53.4614 53.8978 52.9701 54.3706C52.7242 54.6071 52.5187 54.7881 52.3698 54.9137C52.2953 54.9765 52.2349 55.0254 52.1906 55.0607L52.1617 55.0834L52.1363 55.1031L52.1187 55.1167L52.1124 55.1215L52.1098 55.1234L52.1077 55.125ZM51.2327 53.9583C52.1077 55.125 52.1072 55.1254 52.1077 55.125L51.2327 53.9583ZM54.1494 31.4793L52.6911 32.9376V29.7707L54.1494 28.3124V31.4793ZM52.6911 25.646L54.1494 24.1876V16.7708C54.1494 16.3682 53.8229 16.0417 53.4202 16.0417C53.0175 16.0417 52.6911 16.3682 52.6911 16.7708V25.646ZM52.6911 37.0624L54.1494 35.604V37.1875C54.1494 37.5901 53.8229 37.9167 53.4202 37.9167C53.0175 37.9167 52.6911 37.5901 52.6911 37.1875V37.0624ZM52.6911 50.2247C53.7882 48.6742 54.9432 46.4389 55.402 43.5146C55.4885 42.9634 55.0294 42.2917 54.1494 42.2917C53.344 42.2917 52.6911 42.9446 52.6911 43.75V50.2247Z" fill="#E9F7F8" fill-opacity="0.85"/>
</svg>
