<svg width="70" height="70" viewBox="0 0 70 70" fill="none" xmlns="http://www.w3.org/2000/svg">
<path fill-rule="evenodd" clip-rule="evenodd" d="M35.0003 52.5C36.1762 52.5 37.2707 52.8478 38.1866 53.4463L40.8358 5.83331L42.292 5.91432L43.748 5.83331L46.3972 53.4463C47.3133 52.8478 48.4078 52.5 49.5837 52.5C52.8053 52.5 55.417 55.1117 55.417 58.3333C55.417 61.5549 52.8053 64.1666 49.5837 64.1666C46.3766 64.1666 43.7741 61.5787 43.7505 58.3774L43.4244 52.5178H41.1595L40.8335 58.3774C40.8097 61.5787 38.2072 64.1666 35.0003 64.1666C31.7786 64.1666 29.167 61.5549 29.167 58.3333C29.167 55.1117 31.7786 52.5 35.0003 52.5ZM42.292 32.1647L43.2621 49.6011H41.3218L42.292 32.1647ZM42.292 27.7591C43.0974 27.7591 43.7503 27.107 43.7503 26.3028C43.7503 25.4985 43.0974 24.8465 42.292 24.8465C41.4866 24.8465 40.8337 25.4985 40.8337 26.3028C40.8337 27.107 41.4866 27.7591 42.292 27.7591ZM35.0003 55.4166C33.3895 55.4166 32.0837 56.7224 32.0837 58.3333C32.0837 59.9442 33.3895 61.25 35.0003 61.25C36.6112 61.25 37.917 59.9442 37.917 58.3333C37.917 56.7224 36.6112 55.4166 35.0003 55.4166ZM46.667 58.3333C46.667 56.7224 47.9728 55.4166 49.5837 55.4166C51.1945 55.4166 52.5003 56.7224 52.5003 58.3333C52.5003 59.9442 51.1945 61.25 49.5837 61.25C47.9728 61.25 46.667 59.9442 46.667 58.3333Z" fill="#E9F7F8" fill-opacity="0.85"/>
<path fill-rule="evenodd" clip-rule="evenodd" d="M23.3338 6.17432L21.1252 7.4995L21.8755 8.75001C21.1252 7.4995 21.1231 7.50073 21.1231 7.50073L21.1209 7.50204L21.1163 7.50489L21.1055 7.51148L21.0786 7.52832C21.0584 7.5412 21.0334 7.55741 21.0041 7.57713C20.9456 7.61659 20.8697 7.67009 20.7785 7.73905C20.5964 7.87699 20.3541 8.07662 20.0708 8.34913C19.5032 8.89492 18.775 9.72909 18.0357 10.9382C16.5536 13.3625 15.058 17.2423 14.6767 23.2361C14.5605 25.0628 15.6172 26.6022 17.1249 27.3029C16.4564 27.9638 16.0421 28.8814 16.0421 29.8958V60.5208C16.0421 62.5344 17.6744 64.1667 19.688 64.1667C21.7015 64.1667 23.3338 62.5344 23.3338 60.5208V29.8958C23.3338 28.5927 22.6501 27.4493 21.6219 26.8046C22.6628 26.0049 23.3338 24.7475 23.3338 23.3333V6.17432ZM17.5875 23.4213C17.9321 18.005 19.2385 14.6339 20.4171 12.6378V23.3333C20.4171 24.1388 19.7642 24.7917 18.9588 24.7917C18.1296 24.7917 17.5425 24.1297 17.5875 23.4213ZM20.4171 30.021V29.8958C20.4171 29.4932 20.0906 29.1667 19.688 29.1667C19.2852 29.1667 18.9588 29.4932 18.9588 29.8958V31.4793L20.4171 30.021ZM20.4171 34.1457V35.8543L18.9588 37.3126V35.6041L20.4171 34.1457ZM20.4171 41.6876V39.9791L18.9588 41.4374V43.146L20.4171 41.6876ZM20.4171 45.8124V60.5208C20.4171 60.9235 20.0906 61.25 19.688 61.25C19.2852 61.25 18.9588 60.9235 18.9588 60.5208V47.2707L20.4171 45.8124Z" fill="#E9F7F8" fill-opacity="0.85"/>
</svg>
