<svg width="70" height="70" viewBox="0 0 70 70" fill="none" xmlns="http://www.w3.org/2000/svg">
<path fill-rule="evenodd" clip-rule="evenodd" d="M34.3575 16.2251C34.6481 15.9967 46.7842 6.55541 54.8057 15.856C59.2092 20.9619 58.8359 26.2592 57.2018 31.4468L51.4527 47.9157C49.7716 53.6419 48.573 55.4095 45.6278 57.8973C43.8795 59.3738 41.9079 56.8234 39.833 54.139C38.0354 51.8135 36.1603 49.3876 34.2854 49.3933C32.3797 49.3991 30.4744 51.8289 28.6515 54.1534C26.549 56.8347 24.5562 59.376 22.7986 57.8973C19.2497 54.9109 17.6934 50.7845 16.0666 44.1625C15.7535 42.8877 15.2771 41.3586 14.7518 39.6723C12.5485 32.6001 9.48354 22.7621 13.9789 17.3041C19.5302 10.5644 26.4253 9.47946 34.284 16.171L34.3575 16.2251ZM30.4796 16.9172C27.7607 15.049 25.4496 14.4547 23.5244 14.6062C21.159 14.7922 18.7021 16.1574 16.2303 19.1585C14.3713 21.4155 14.1821 25.2283 15.1843 30.2095C15.6617 32.5818 16.358 34.9842 17.0593 37.2661C17.2106 37.7584 17.3643 38.2518 17.5167 38.7406C18.0479 40.4455 18.5624 42.0964 18.8992 43.4668C20.3884 49.5292 21.6838 52.7874 24.0337 55.083C24.5187 54.6319 25.1322 53.9073 25.9439 52.8787C26.0704 52.7183 26.2016 52.5507 26.3368 52.3781C27.1683 51.3165 28.1532 50.059 29.1578 49.0538C30.225 47.986 31.9892 46.4836 34.2767 46.4766C36.5747 46.4696 38.3342 47.9964 39.3797 49.0567C40.3698 50.0611 41.3409 51.3189 42.1604 52.3804C42.2945 52.5539 42.4244 52.7222 42.5497 52.8834C43.3448 53.9055 43.9471 54.6271 44.4233 55.0785C45.3681 54.2243 45.9807 53.5112 46.5108 52.6244C47.1952 51.4796 47.8326 49.8922 48.6541 47.0941C48.6678 47.0471 48.6828 47.0006 48.699 46.9544L54.4331 30.5287C55.1828 28.1375 55.5636 25.9539 55.3648 23.9019C55.1713 21.9031 54.4131 19.8667 52.5969 17.7609C49.5861 14.2699 45.8872 14.2171 42.3976 15.2985C40.6401 15.843 39.0628 16.6542 37.9077 17.3477C37.4742 17.6079 37.1089 17.8463 36.8254 18.0397L42.4269 22.1583C43.0757 22.6355 43.215 23.5483 42.7378 24.1971C42.2608 24.846 41.3479 24.9853 40.6991 24.5082L32.7879 18.6912C32.6784 18.6214 32.5725 18.5439 32.4711 18.4583L30.7822 17.2165C30.6643 17.1297 30.5632 17.0287 30.4796 16.9172ZM23.5222 55.4821L23.5279 55.4794C23.524 55.4813 23.5221 55.4821 23.5222 55.4821Z" fill="#E9F7F8" fill-opacity="0.85"/>
</svg>
